<svg width="664" height="462" viewBox="0 0 664 462" fill="none" xmlns="http://www.w3.org/2000/svg">
<circle r="1.53803" transform="matrix(-1 0 0 1 296.366 270.577)" fill="#A1CBF2"/>
<circle r="1.53803" transform="matrix(-1 0 0 1 296.366 281.343)" fill="#A1CBF2"/>
<circle r="1.53803" transform="matrix(-1 0 0 1 296.366 292.11)" fill="#A1CBF2"/>
<circle r="1.53803" transform="matrix(-1 0 0 1 296.366 302.876)" fill="#A1CBF2"/>
<circle r="1.53803" transform="matrix(-1 0 0 1 296.366 313.642)" fill="#A1CBF2"/>
<circle r="1.53803" transform="matrix(-1 0 0 1 285.6 270.577)" fill="#A1CBF2"/>
<circle r="1.53803" transform="matrix(-1 0 0 1 285.6 281.343)" fill="#A1CBF2"/>
<circle r="1.53803" transform="matrix(-1 0 0 1 285.6 292.11)" fill="#A1CBF2"/>
<circle r="1.53803" transform="matrix(-1 0 0 1 285.6 302.876)" fill="#A1CBF2"/>
<circle r="1.53803" transform="matrix(-1 0 0 1 285.6 313.642)" fill="#A1CBF2"/>
<circle cx="274.834" cy="270.577" r="1.53803" fill="#A1CBF2"/>
<circle cx="274.834" cy="281.343" r="1.53803" fill="#A1CBF2"/>
<circle cx="274.834" cy="292.11" r="1.53803" fill="#A1CBF2"/>
<circle cx="274.834" cy="302.876" r="1.53803" fill="#A1CBF2"/>
<circle cx="274.834" cy="313.642" r="1.53803" fill="#A1CBF2"/>
<circle cx="264.067" cy="270.577" r="1.53803" fill="#A1CBF2"/>
<circle cx="253.301" cy="270.577" r="1.53803" fill="#A1CBF2"/>
<circle cx="264.067" cy="281.343" r="1.53803" fill="#A1CBF2"/>
<circle cx="253.301" cy="281.343" r="1.53803" fill="#A1CBF2"/>
<circle cx="264.067" cy="292.11" r="1.53803" fill="#A1CBF2"/>
<circle cx="253.301" cy="292.11" r="1.53803" fill="#A1CBF2"/>
<circle cx="264.067" cy="302.876" r="1.53803" fill="#A1CBF2"/>
<circle cx="253.301" cy="302.876" r="1.53803" fill="#A1CBF2"/>
<circle cx="264.067" cy="313.642" r="1.53803" fill="#A1CBF2"/>
<circle cx="253.301" cy="313.642" r="1.53803" fill="#A1CBF2"/>
<circle opacity="0.1" cx="302.569" cy="271.882" r="133.107" stroke="#A1CBF2" stroke-width="85"/>
<mask id="mask0_1852_172596" style="mask-type:alpha" maskUnits="userSpaceOnUse" x="154" y="77" width="352" height="352">
<circle cx="330.329" cy="253.378" r="132.107" stroke="black" stroke-width="87"/>
</mask>
<g mask="url(#mask0_1852_172596)">
<mask id="mask1_1852_172596" style="mask-type:alpha" maskUnits="userSpaceOnUse" x="153" y="77" width="353" height="352">
<path d="M500.288 253.378C500.288 347.314 423.966 423.485 329.792 423.485C235.618 423.485 159.296 347.314 159.296 253.378C159.296 159.442 235.618 83.2715 329.792 83.2715C423.966 83.2715 500.288 159.442 500.288 253.378Z" fill="white" stroke="white" stroke-width="11"/>
</mask>
<g mask="url(#mask1_1852_172596)">
<path d="M329.792 428.985C426.992 428.985 505.788 350.363 505.788 253.378C505.788 156.393 426.992 77.7715 329.792 77.7715C232.592 77.7715 153.796 156.393 153.796 253.378C153.796 350.363 232.592 428.985 329.792 428.985Z" fill="white"/>
<path d="M-42.4979 82.7709C-42.4979 77.5284 -38.236 73.258 -32.9847 73.4768C1.4248 74.9112 35.3681 84.1194 67.228 100.698C102.008 118.802 133.621 145.335 160.239 178.784C186.867 212.232 207.986 251.942 222.389 295.642C235.841 336.418 243.195 379.927 244.118 423.995C244.232 429.237 239.96 433.487 234.709 433.487H-32.9847C-38.236 433.487 -42.4979 429.237 -42.4979 423.995V82.7709Z" fill="#222536"/>
<path d="M527.481 423.999C527.481 429.242 523.219 433.512 517.968 433.293C483.558 431.859 449.615 422.651 417.765 406.072C382.975 387.969 351.372 361.435 324.744 327.987C298.117 294.538 277.007 254.828 262.594 211.128C249.152 170.352 241.789 126.842 240.866 82.775C240.761 77.5337 245.033 73.2832 250.284 73.2832L517.968 73.2832C523.219 73.2832 527.481 77.533 527.481 82.7755V423.999Z" fill="#A1CBF2"/>
<path d="M709.608 423.999C709.608 429.242 705.346 433.512 700.094 433.293C665.685 431.859 631.732 422.651 599.882 406.072C565.101 387.969 533.489 361.435 506.871 327.987C480.243 294.538 459.124 254.828 444.711 211.128C431.269 170.352 423.915 126.842 422.993 82.775C422.878 77.5337 427.15 73.2832 432.401 73.2832L700.094 73.2832C705.346 73.2832 709.608 77.533 709.608 82.7755V423.999Z" fill="#528BE6"/>
<path d="M146.235 376.942V338.006H45.6628V307.292L118.075 153.564H155.055L82.6426 307.292H146.235V246.794H179.037V307.292H201.163V338.006H179.037V376.942H146.235Z" fill="white"/>
</g>
</g>
<path opacity="0.5" d="M86.3892 161.438C86.3892 160.885 85.9414 160.437 85.3892 160.445C74.3847 160.605 63.5026 163.406 53.3294 168.704C42.8482 174.163 33.3248 182.163 25.3029 192.247C17.2808 202.332 10.9174 214.305 6.57598 227.481C2.33602 240.348 0.105633 254.119 0.00365792 268.041C-0.000387422 268.593 0.447711 269.041 0.999995 269.041L85.3892 269.041C85.9415 269.041 86.3892 268.593 86.3892 268.041L86.3892 161.438Z" fill="#A1CBF2"/>
<path d="M132.66 380.112V341.176H32.0874V310.462L104.5 156.734H141.479L69.0671 310.462H132.66V249.964H165.462V310.462H187.588V341.176H165.462V380.112H132.66Z" fill="#222536"/>
<path opacity="0.5" d="M662.962 330.747C663.515 330.747 663.963 331.195 663.954 331.747C663.793 341.131 661.375 350.408 656.823 359.084C652.109 368.068 645.2 376.231 636.49 383.107C627.781 389.983 617.441 395.437 606.062 399.158C594.991 402.779 583.145 404.69 571.169 404.791C570.616 404.795 570.169 404.347 570.169 403.795L570.169 331.747C570.169 331.195 570.616 330.747 571.169 330.747L662.962 330.747Z" fill="#528BE6"/>
<path d="M561.702 380.112V341.176H460.331V310.462L533.318 156.734H570.591L497.604 310.462H561.702V249.964H594.764V310.462H617.066V341.176H594.764V380.112H561.702Z" fill="#222536"/>
<path d="M447.333 8.75244L447.333 39.0718L421.075 23.9121L447.333 8.75244Z" fill="#A1CBF2"/>
<circle r="19.129" transform="matrix(-1 0 0 1 73.431 349.877)" fill="#528BE6"/>
<circle r="10" transform="matrix(-1 0 0 1 506 448.275)" stroke="#A1CBF2" stroke-width="6"/>
<path d="M467.033 172.16C467.033 182.513 475.165 190.757 485.013 190.757C494.862 190.757 502.994 182.513 502.994 172.16C502.994 161.806 494.862 153.562 485.013 153.562C475.165 153.562 467.033 161.806 467.033 172.16Z" stroke="#A1CBF2" stroke-width="6"/>
<circle r="1.36826" transform="matrix(-1 0 0 1 587.3 131.687)" fill="#528BE6"/>
<circle r="1.36826" transform="matrix(-1 0 0 1 587.3 141.265)" fill="#528BE6"/>
<circle r="1.36826" transform="matrix(-1 0 0 1 587.3 150.843)" fill="#528BE6"/>
<circle r="1.36826" transform="matrix(-1 0 0 1 587.3 160.421)" fill="#528BE6"/>
<circle r="1.36826" transform="matrix(-1 0 0 1 587.3 169.999)" fill="#528BE6"/>
<circle r="1.36826" transform="matrix(-1 0 0 1 577.722 131.687)" fill="#528BE6"/>
<circle r="1.36826" transform="matrix(-1 0 0 1 577.722 141.265)" fill="#528BE6"/>
<circle r="1.36826" transform="matrix(-1 0 0 1 577.722 150.843)" fill="#528BE6"/>
<circle r="1.36826" transform="matrix(-1 0 0 1 577.722 160.421)" fill="#528BE6"/>
<circle r="1.36826" transform="matrix(-1 0 0 1 577.722 169.999)" fill="#528BE6"/>
<circle cx="568.145" cy="131.687" r="1.36826" fill="#528BE6"/>
<circle cx="568.145" cy="141.265" r="1.36826" fill="#528BE6"/>
<circle cx="568.145" cy="150.843" r="1.36826" fill="#528BE6"/>
<circle cx="568.145" cy="160.421" r="1.36826" fill="#528BE6"/>
<circle cx="568.145" cy="169.999" r="1.36826" fill="#528BE6"/>
<circle cx="558.566" cy="131.687" r="1.36826" fill="#528BE6"/>
<circle cx="548.988" cy="131.687" r="1.36826" fill="#528BE6"/>
<circle cx="558.566" cy="141.265" r="1.36826" fill="#528BE6"/>
<circle cx="548.988" cy="141.265" r="1.36826" fill="#528BE6"/>
<circle cx="558.566" cy="150.843" r="1.36826" fill="#528BE6"/>
<circle cx="548.988" cy="150.843" r="1.36826" fill="#528BE6"/>
<circle cx="558.566" cy="160.421" r="1.36826" fill="#528BE6"/>
<circle cx="548.988" cy="160.421" r="1.36826" fill="#528BE6"/>
<circle cx="558.566" cy="169.999" r="1.36826" fill="#528BE6"/>
<circle cx="548.988" cy="169.999" r="1.36826" fill="#528BE6"/>
</svg>
