<svg width="1280" height="869" viewBox="0 0 1280 869" fill="none" xmlns="http://www.w3.org/2000/svg">
<mask id="mask0_479_2507" style="mask-type:alpha" maskUnits="userSpaceOnUse" x="0" y="0" width="1280" height="869">
<path d="M1280 868.189H-9.53674e-06V194.274C864 272.021 1280 -5.20647e-05 1280 -5.20647e-05V868.189Z" fill="#6397E8"/>
</mask>
<g mask="url(#mask0_479_2507)">
<rect width="1280" height="868" fill="#528BE6"/>
<path opacity="0.2" d="M1326.22 564.122C1326.22 564.674 1325.77 565.122 1325.22 565.121C1237.59 564.96 1150.83 543.737 1069.87 502.636C988.593 461.378 914.747 400.911 852.543 324.683C790.337 248.455 740.994 157.961 707.33 58.3704C673.769 -40.9118 656.445 -147.308 656.338 -254.767C656.338 -255.32 656.786 -255.767 657.338 -255.767L1325.22 -255.767C1325.77 -255.767 1326.22 -255.32 1326.22 -254.767L1326.22 564.122Z" fill="#222536"/>
<path opacity="0.2" d="M-25.779 -112.542C-25.779 -113.095 -25.3311 -113.543 -24.7788 -113.542C80.9894 -113.38 185.706 -87.573 283.43 -37.5643C381.461 12.6021 470.533 86.1249 545.563 178.812C620.593 271.499 680.11 381.533 720.716 502.627C761.218 623.413 782.114 752.859 782.221 883.594C782.221 884.146 781.773 884.594 781.221 884.594L-24.779 884.594C-25.3313 884.594 -25.779 884.147 -25.779 883.594L-25.779 -112.542Z" fill="#A1CBF2"/>
<path d="M-296.558 64.4617C-296.558 63.9094 -296.11 63.4616 -295.557 63.4626C-207.927 63.6229 -121.17 84.8463 -40.2039 125.948C41.0704 167.206 114.917 227.672 177.121 303.9C239.326 380.128 288.669 470.623 322.334 570.213C355.895 669.495 373.219 775.891 373.325 883.351C373.326 883.903 372.878 884.351 372.326 884.351L-295.558 884.351C-296.11 884.351 -296.558 883.903 -296.558 883.351L-296.558 64.4617Z" fill="#528BE6"/>
</g>
</svg>
