<svg width="402" height="54" fill="none" xmlns="http://www.w3.org/2000/svg"><g clip-path="url(#clip0_1025_42314)"><path d="M0 54h10.162l3.303-10.954h19.672L36.512 54h10.163L30.705 1.42H15.97L0 54zm16.26-20.228l6.969-23.04 7.077 23.04H16.26zM53.18 54h10.017V18.947L85.917 54h10.018V1.42H85.918v35.054L63.197 1.42H53.18V54zm54.48 0h9.872v-9.932h-9.872V54zm32.615 0h9.727l10.127-35.49L170.254 54h9.728l15.316-52.58h-10.381l-9.799 36.149-9.799-36.148-10.38.073-9.8 36.075-9.8-36.148h-10.38L140.275 54zm124.873-1.082h9.976v-17.59h11.112l8.693 17.59h11.296l-9.535-19.25c3.008-1.345 5.22-3.376 6.638-6.091 1.443-2.74 2.164-5.876 2.164-9.409 0-4.373-1.089-8.098-3.264-11.174-2.177-3.076-5.637-4.975-10.379-5.696a16.264 16.264 0 00-2.348-.216 38.468 38.468 0 00-2.054-.072h-22.299v51.908zm9.976-26.747V10.166h11.884c.513 0 1.074.024 1.686.072a8.785 8.785 0 011.688.288c1.344.36 2.383.974 3.117 1.839a6.844 6.844 0 011.503 2.848c.294 1.033.44 2.018.44 2.955 0 .938-.146 1.935-.44 2.992-.268 1.034-.77 1.983-1.503 2.848-.734.841-1.773 1.442-3.117 1.803a8.8 8.8 0 01-1.688.288 21.67 21.67 0 01-1.686.072h-11.884zm39.165 26.747h9.976V29.271l21.052 23.647h12.616L334.46 26.604 356.54 1.01h-12.176l-20.099 23.935V1.01h-9.976v51.908zM380.802 54c2.69 0 5.294-.337 7.812-1.01 2.543-.672 4.817-1.682 6.822-3.027 2.005-1.37 3.594-3.088 4.767-5.155 1.199-2.09 1.798-4.53 1.798-7.318 0-2.62-.502-4.782-1.504-6.488-.978-1.707-2.237-3.076-3.778-4.11a19.453 19.453 0 00-4.767-2.451 53.841 53.841 0 00-4.549-1.442l-9.169-2.451a26.533 26.533 0 01-3.3-1.082c-1.076-.432-1.968-.997-2.677-1.694-.71-.72-1.063-1.646-1.063-2.775 0-1.226.427-2.284 1.283-3.173.881-.889 2.005-1.562 3.374-2.018 1.394-.481 2.872-.697 4.438-.65 2.396.073 4.597.77 6.601 2.092 2.006 1.321 3.302 3.244 3.888 5.767l10.782-1.802c-1.271-4.879-3.74-8.616-7.408-11.211-3.668-2.595-8.24-3.93-13.717-4.001-3.618-.024-6.919.528-9.901 1.658-2.984 1.13-5.367 2.848-7.152 5.155-1.785 2.307-2.677 5.203-2.677 8.687 0 2.476.414 4.53 1.246 6.164.856 1.61 1.92 2.908 3.191 3.893 1.27.986 2.579 1.743 3.923 2.271 1.37.53 2.568.938 3.596 1.226l13.716 3.965c2.054.601 3.423 1.358 4.107 2.271.686.89 1.028 1.863 1.028 2.92 0 1.442-.502 2.656-1.504 3.641-.978.985-2.237 1.73-3.778 2.235a15.216 15.216 0 01-4.768.757c-2.934 0-5.55-.805-7.848-2.415-2.299-1.61-3.815-3.905-4.549-6.885l-10.415 1.514c.538 3.508 1.809 6.536 3.814 9.084 2.03 2.523 4.61 4.47 7.739 5.84C373.358 53.326 376.89 54 380.802 54z" fill="#fff"/><mask id="mask0_1025_42314" style="mask-type:alpha" maskUnits="userSpaceOnUse" x="204" y="1" width="53" height="53"><path d="M251.245 27.29c0 11.465-9.329 20.79-20.872 20.79-11.544 0-20.873-9.325-20.873-20.79 0-11.466 9.329-20.79 20.873-20.79 11.543 0 20.872 9.324 20.872 20.79z" fill="#fff" stroke="#fff" stroke-width="11"/></mask><g mask="url(#mask0_1025_42314)"><path d="M230.373 53.58c14.565 0 26.372-11.771 26.372-26.29 0-14.52-11.807-26.29-26.372-26.29C215.807 1 204 12.77 204 27.29c0 14.519 11.807 26.29 26.373 26.29z" fill="#fff"/><path d="M174.586 1.748c0-.785.639-1.424 1.425-1.391 5.157.214 10.243 1.593 15.017 4.075 5.212 2.71 9.949 6.682 13.937 11.69 3.991 5.007 7.155 10.952 9.313 17.494 2.016 6.105 3.118 12.618 3.256 19.216a1.399 1.399 0 01-1.409 1.42h-40.114a1.424 1.424 0 01-1.425-1.42V1.748z" fill="#222536"/><path d="M259.996 52.83c0 .786-.639 1.425-1.426 1.392-5.156-.215-10.242-1.593-15.015-4.075-5.213-2.71-9.949-6.682-13.939-11.69-3.99-5.007-7.153-10.952-9.313-17.495-2.014-6.104-3.118-12.618-3.256-19.215a1.402 1.402 0 011.411-1.42h40.112c.787 0 1.426.635 1.426 1.42v51.084z" fill="#A1CBF2"/><path d="M287.287 52.83c0 .786-.639 1.425-1.426 1.392-5.156-.215-10.244-1.593-15.016-4.075-5.212-2.71-9.949-6.682-13.938-11.69-3.99-5.007-7.155-10.952-9.314-17.495-2.015-6.104-3.116-12.618-3.255-19.215a1.4 1.4 0 011.41-1.42h40.113c.787 0 1.426.635 1.426 1.42v51.084z" fill="#528BE6"/></g></g><defs><clipPath id="clip0_1025_42314"><path fill="#fff" d="M0 0h402v54H0z"/></clipPath></defs></svg>