<svg width="160" height="21" fill="none" xmlns="http://www.w3.org/2000/svg"><g clip-path="url(#clip0_1025_41543)"><path d="M0 21h4.045l1.314-4.26h7.83L14.532 21h4.045L12.221.553H6.356L0 21zm6.472-7.867l2.773-8.96 2.817 8.96h-5.59zM21.166 21h3.987V7.37L34.196 21h3.987V.553h-3.987v13.631L25.153.553h-3.987V21zm21.684 0h3.93v-3.862h-3.93V21zm12.982 0h3.87l4.032-13.802L67.764 21h3.871L77.731.553H73.6L69.7 14.61 65.8.553 61.667.58l-3.9 14.03-3.9-14.058h-4.132L55.832 21zm49.701-.42h3.97v-6.842h4.423l3.46 6.841h4.496l-3.795-7.486c1.197-.523 2.077-1.313 2.642-2.369.574-1.065.861-2.285.861-3.658 0-1.701-.433-3.15-1.299-4.346-.867-1.196-2.244-1.935-4.131-2.215a6.628 6.628 0 00-.935-.084 15.27 15.27 0 00-.817-.028h-8.875v20.186zm3.97-10.402V3.953h4.73c.204 0 .428.01.671.028.244.02.468.057.672.113.535.14.949.378 1.241.715.291.327.491.696.598 1.107.117.402.175.785.175 1.15 0 .364-.058.752-.175 1.163a2.771 2.771 0 01-.598 1.107c-.292.328-.706.561-1.241.701a3.562 3.562 0 01-.672.113 8.8 8.8 0 01-.671.028h-4.73zM125.09 20.58h3.971v-9.197l8.379 9.196h5.021l-9.342-10.233 8.788-9.953h-4.847L129.061 9.7V.393h-3.971v20.186zm26.473.42c1.07 0 2.107-.13 3.109-.392a9.049 9.049 0 002.716-1.178 6.04 6.04 0 001.897-2.005c.477-.813.715-1.761.715-2.846 0-1.018-.199-1.86-.598-2.523a4.75 4.75 0 00-1.504-1.598 7.819 7.819 0 00-1.897-.953 21.744 21.744 0 00-1.811-.56l-3.649-.954a10.657 10.657 0 01-1.313-.42 3.203 3.203 0 01-1.066-.66c-.283-.28-.423-.64-.423-1.079 0-.477.17-.888.51-1.234.351-.345.799-.607 1.343-.785a5.021 5.021 0 011.767-.252c.953.028 1.829.3 2.627.813.798.514 1.314 1.262 1.547 2.243l4.292-.7c-.506-1.898-1.489-3.351-2.949-4.36-1.46-1.01-3.279-1.529-5.459-1.557-1.44-.01-2.754.206-3.941.645-1.187.44-2.136 1.108-2.846 2.005-.711.897-1.066 2.023-1.066 3.378 0 .963.165 1.762.496 2.397.341.627.764 1.131 1.27 1.514a6.383 6.383 0 001.562.884c.545.205 1.021.364 1.431.476l5.459 1.542c.817.234 1.362.528 1.634.883.273.346.41.725.41 1.136 0 .56-.2 1.033-.599 1.416-.389.383-.89.673-1.504.869a6.18 6.18 0 01-1.897.294c-1.168 0-2.209-.313-3.124-.939-.915-.626-1.518-1.519-1.81-2.678l-4.146.59c.214 1.364.72 2.541 1.518 3.532.808.981 1.835 1.738 3.08 2.271 1.256.523 2.662.785 4.219.785z" fill="#222536"/><mask id="mask0_1025_41543" style="mask-type:alpha" maskUnits="userSpaceOnUse" x="81" y="0" width="22" height="22"><path d="M91.63 21c5.797 0 10.497-4.577 10.497-10.223 0-5.647-4.7-10.224-10.497-10.224S81.134 5.13 81.134 10.776c0 5.647 4.7 10.224 10.496 10.224z" fill="#C4C4C4"/></mask><g mask="url(#mask0_1025_41543)"><path d="M91.63 21c5.797 0 10.497-4.577 10.497-10.224 0-5.646-4.7-10.223-10.497-10.223S81.134 5.13 81.134 10.776c0 5.647 4.7 10.224 10.496 10.224z" fill="#fff"/><path d="M69.427.843c0-.305.254-.553.567-.54 2.053.083 4.077.619 5.977 1.584 2.075 1.054 3.96 2.599 5.547 4.546 1.589 1.948 2.848 4.26 3.707 6.804a25.074 25.074 0 011.296 7.472.55.55 0 01-.561.553H69.995a.56.56 0 01-.568-.553V.843z" fill="#222536"/><path d="M103.42 20.71a.543.543 0 01-.567.54 14.464 14.464 0 01-5.976-1.584c-2.075-1.055-3.96-2.6-5.548-4.547-1.588-1.947-2.847-4.259-3.707-6.803A25.093 25.093 0 0186.326.843a.551.551 0 01.562-.552h15.965a.56.56 0 01.567.552V20.71z" fill="#A1CBF2"/><path d="M114.284 20.71a.543.543 0 01-.568.54 14.468 14.468 0 01-5.977-1.584c-2.074-1.055-3.959-2.6-5.547-4.547-1.588-1.947-2.847-4.259-3.707-6.803A25.096 25.096 0 0197.19.843a.55.55 0 01.56-.552h15.966a.56.56 0 01.568.552V20.71z" fill="#528BE6"/></g></g><defs><clipPath id="clip0_1025_41543"><path fill="#fff" d="M0 0h160v21H0z"/></clipPath></defs></svg>