<svg width="461" height="1024" viewBox="0 0 461 1024" fill="none" xmlns="http://www.w3.org/2000/svg">
<g clip-path="url(#clip0_2095_171869)">
<mask id="mask0_2095_171869" style="mask-type:alpha" maskUnits="userSpaceOnUse" x="-48" y="-196" width="1010" height="1300">
<path d="M961.5 1103.67L961.5 -195.999L178.797 -195.999C269.56 681.277 -48.0001 1103.67 -48.0001 1103.67L961.5 1103.67Z" fill="#6397E8"/>
</mask>
<g mask="url(#mask0_2095_171869)">
<rect width="1299.67" height="1010" transform="matrix(-4.37114e-08 -1 -1 4.37114e-08 961.504 1103.67)" fill="#528BE6"/>
<path opacity="0.2" d="M1076.54 259.877C1076.54 259.325 1076.09 258.877 1075.54 258.878C976.119 259.026 877.691 281.211 785.835 324.193C693.671 367.32 609.93 430.525 539.391 510.206C468.851 589.886 412.897 684.48 374.721 788.581C336.659 892.374 317.014 1003.6 316.898 1115.95C316.897 1116.5 317.345 1116.95 317.897 1116.95L1075.54 1116.95C1076.09 1116.95 1076.54 1116.5 1076.54 1115.95L1076.54 259.877Z" fill="#222536"/>
<path opacity="0.2" d="M-409 967.288C-409 967.84 -408.552 968.288 -408 968.287C-288.014 968.138 -169.22 941.162 -58.3614 888.869C52.8049 836.43 153.812 759.577 238.894 662.692C323.978 565.807 391.469 450.789 437.515 324.21C483.449 197.939 507.146 62.6148 507.261 -74.0574C507.261 -74.6097 506.814 -75.0576 506.261 -75.0576L-408 -75.0577C-408.552 -75.0577 -409 -74.61 -409 -74.0577L-409 967.288Z" fill="#A1CBF2"/>
<path d="M-491 782.266C-491 782.818 -490.552 783.266 -490 783.265C-390.583 783.117 -292.154 760.932 -200.299 717.949C-108.135 674.823 -24.3935 611.617 46.145 531.937C116.685 452.257 172.639 357.663 210.815 253.562C248.877 149.769 268.522 38.5378 268.638 -73.8039C268.639 -74.3562 268.191 -74.8042 267.639 -74.8042L-490 -74.8042C-490.552 -74.8042 -491 -74.3565 -491 -73.8042L-491 782.266Z" fill="#528BE6"/>
</g>
</g>
<defs>
<clipPath id="clip0_2095_171869">
<rect width="1024" height="461" fill="white" transform="matrix(-4.37114e-08 -1 -1 4.37114e-08 461 1024)"/>
</clipPath>
</defs>
</svg>
