<svg width="32" height="32" fill="none" xmlns="http://www.w3.org/2000/svg"><g clip-path="url(#clip0_1153_44118)"><path fill="transparent" d="M0 0h32v32H0z"/><mask id="mask0_1153_44118" style="mask-type:alpha" maskUnits="userSpaceOnUse" x="-1" y="0" width="33" height="32"><path d="M26.5 16c0 5.798-4.701 10.499-10.5 10.499-5.8 0-10.5-4.701-10.5-10.5C5.5 10.201 10.2 5.5 16 5.5c5.799 0 10.5 4.7 10.5 10.5z" fill="#fff" stroke="#fff" stroke-width="11"/></mask><g mask="url(#mask0_1153_44118)"><path d="M16 31.999c8.836 0 16-7.163 16-16C32 7.163 24.836 0 16 0 7.163 0 0 7.163 0 16c0 8.836 7.163 15.999 16 15.999z" fill="#fff"/><path d="M-17.846.455c0-.477.388-.867.865-.847 3.128.131 6.214.97 9.11 2.48 3.162 1.65 6.036 4.067 8.456 7.115 2.421 3.047 4.341 6.665 5.65 10.647 1.223 3.715 1.892 7.679 1.976 11.694a.85.85 0 01-.856.865H-16.98a.865.865 0 01-.865-.865V.455z" fill="#222536"/><path d="M33.972 31.544a.837.837 0 01-.865.846c-3.128-.13-6.214-.97-9.11-2.48-3.162-1.65-6.035-4.067-8.456-7.114-2.42-3.048-4.34-6.666-5.65-10.647A40.215 40.215 0 017.916.455a.852.852 0 01.856-.865h24.335c.478 0 .865.387.865.865v31.089z" fill="#A1CBF2"/><path d="M50.53 31.544a.837.837 0 01-.866.846c-3.128-.13-6.214-.97-9.11-2.48-3.162-1.65-6.036-4.067-8.456-7.114-2.42-3.048-4.34-6.666-5.65-10.647-1.223-3.715-1.891-7.68-1.975-11.694a.85.85 0 01.855-.865h24.336c.478 0 .865.387.865.865v31.089z" fill="#528BE6"/></g></g><defs><clipPath id="clip0_1153_44118"><path fill="transparent" d="M0 0h32v32H0z"/></clipPath></defs></svg>