<svg xmlns="http://www.w3.org/2000/svg" width="36" height="341"><svg width="16" height="16" fill="none" id="copyright" y="0"><path d="M8 14.667A6.67 6.67 0 011.333 8 6.67 6.67 0 018 1.333 6.67 6.67 0 0114.667 8 6.67 6.67 0 018 14.667zM9.92 10a2.666 2.666 0 110-4" stroke="#fff" stroke-linecap="round" stroke-linejoin="round"/></svg><svg width="36" height="37" fill="none" id="cristal" y="16"><path d="M9 7.744h18l4.5 7.5-12.75 14.25a1.05 1.05 0 01-1.5 0L4.5 15.244l4.5-7.5z" stroke="#528BE6" stroke-width="1.5" stroke-linecap="round" stroke-linejoin="round"/><path d="M15 18.244l-3-3.3.9-1.5" stroke="#528BE6" stroke-width="1.5" stroke-linecap="round" stroke-linejoin="round"/></svg><svg width="36" height="36" fill="none" id="facebook" y="53"><path d="M10.5 15v6H15v10.5h6V21h4.5l1.5-6h-6v-3a1.5 1.5 0 011.5-1.5H27v-6h-4.5A7.5 7.5 0 0015 12v3h-4.5z" stroke="#fff" stroke-width=".833" stroke-linecap="round" stroke-linejoin="round"/></svg><svg width="36" height="37" fill="none" id="flesh" y="89"><path d="M19.5 4.244v10.5h9l-12 16.5v-10.5h-9l12-16.5z" stroke="#528BE6" stroke-width="1.5" stroke-linecap="round" stroke-linejoin="round"/></svg><svg width="36" height="36" fill="none" id="insta" y="126"><path d="M24 6H12a6 6 0 00-6 6v12a6 6 0 006 6h12a6 6 0 006-6V12a6 6 0 00-6-6z" stroke="#fff" stroke-width=".833" stroke-linecap="round" stroke-linejoin="round"/><path d="M18 22.5a4.5 4.5 0 100-9 4.5 4.5 0 000 9zm6.75-11.25v.001" stroke="#fff" stroke-width=".833" stroke-linecap="round" stroke-linejoin="round"/></svg><svg width="36" height="36" fill="none" id="linkedin" y="162"><path d="M27 6H9a3 3 0 00-3 3v18a3 3 0 003 3h18a3 3 0 003-3V9a3 3 0 00-3-3zM12 16.5V24m0-12v.015M18 24v-7.5" stroke="#fff" stroke-width=".833" stroke-linecap="round" stroke-linejoin="round"/><path d="M24 24v-4.5a3 3 0 00-6 0" stroke="#fff" stroke-width=".833" stroke-linecap="round" stroke-linejoin="round"/></svg><svg width="36" height="37" fill="none" id="shield" y="198"><path d="M13.5 18.244l3 3 6-6" stroke="#528BE6" stroke-width="1.5" stroke-linecap="round" stroke-linejoin="round"/><path d="M18 4.744a18 18 0 0012.75 4.5A18 18 0 0118 31.744a18 18 0 01-12.75-22.5A18 18 0 0018 4.744" stroke="#528BE6" stroke-width="1.5" stroke-linecap="round" stroke-linejoin="round"/></svg><svg width="36" height="36" fill="none" id="telega" y="235"><path d="M22.5 15l-6 6 9 9 6-24-27 10.5 6 3 3 9 4.5-6" stroke="#fff" stroke-width=".833" stroke-linecap="round" stroke-linejoin="round"/></svg><svg width="36" height="35" fill="none" id="time" y="271"><path d="M18 30.373c7.456 0 13.5-5.828 13.5-13.017 0-7.19-6.044-13.017-13.5-13.017S4.5 10.167 4.5 17.356c0 7.189 6.044 13.017 13.5 13.017z" stroke="#528BE6" stroke-width=".833" stroke-linecap="round" stroke-linejoin="round"/><path d="M18 10.124v7.232l4.5 4.339" stroke="#528BE6" stroke-width=".833" stroke-linecap="round" stroke-linejoin="round"/></svg><svg width="36" height="35" fill="none" id="user" y="306"><path d="M24.188 7.594c0-.144.059-.282.164-.384a.573.573 0 01.398-.159h2.813V4.34c0-.144.059-.282.164-.383a.573.573 0 01.796 0c.105.101.165.24.165.383v2.712H31.5c.15 0 .292.057.398.159a.533.533 0 010 .767.573.573 0 01-.398.159h-2.813v2.712a.531.531 0 01-.164.383.573.573 0 01-.796 0 .533.533 0 01-.165-.383V8.136H24.75a.573.573 0 01-.398-.159.533.533 0 01-.165-.383zm7.7 7.624a13.117 13.117 0 01-1.026 7.618 13.556 13.556 0 01-3.4 4.542.552.552 0 01-.117.102c-2.572 2.213-5.898 3.436-9.345 3.436-3.447 0-6.773-1.223-9.344-3.436a.552.552 0 01-.119-.102 13.462 13.462 0 01-4.223-6.913 13.097 13.097 0 01.57-8.005C5.909 9.908 7.71 7.715 10.05 6.168A14.425 14.425 0 0118 3.797a14.7 14.7 0 012.218.168.576.576 0 01.368.216.535.535 0 01.101.405.53.53 0 01-.226.354.572.572 0 01-.42.096A13.56 13.56 0 0018 4.882a13.275 13.275 0 00-7.182 2.096 12.58 12.58 0 00-4.766 5.588 12.055 12.055 0 00-.744 7.2 12.335 12.335 0 003.527 6.387c1.397-2.255 3.637-3.907 6.26-4.616a6.059 6.059 0 01-2.748-2.841 5.77 5.77 0 01-.35-3.87 5.952 5.952 0 012.194-3.258A6.336 6.336 0 0118 10.303c1.38 0 2.721.446 3.81 1.265a5.952 5.952 0 012.194 3.258 5.77 5.77 0 01-.351 3.87 6.059 6.059 0 01-2.747 2.84c2.622.71 4.862 2.362 6.259 4.617a12.413 12.413 0 002.794-4.037 12.05 12.05 0 00.818-6.728.527.527 0 01.1-.404.579.579 0 01.786-.12.54.54 0 01.226.354zM18 21.153c1.001 0 1.98-.286 2.813-.823a4.924 4.924 0 001.864-2.19 4.719 4.719 0 00.288-2.82 4.83 4.83 0 00-1.385-2.5 5.122 5.122 0 00-2.592-1.336c-.982-.188-2-.092-2.925.278a5.028 5.028 0 00-2.272 1.798 4.758 4.758 0 00-.854 2.712 4.8 4.8 0 001.485 3.45A5.166 5.166 0 0018 21.153zm0 8.678c3.044.003 5.99-1.034 8.316-2.927a9.396 9.396 0 00-3.505-3.415A9.839 9.839 0 0018 22.238a9.84 9.84 0 00-4.81 1.251 9.396 9.396 0 00-3.506 3.415c2.326 1.893 5.273 2.93 8.316 2.927z" fill="#528BE6"/></svg></svg>