<svg width="0" height="0" class="hidden">
  <symbol fill="none" xmlns="http://www.w3.org/2000/svg" viewBox="0 0 160 40" id="boosteroid">
    <path d="M21.477 15.205c-2.657 0-4.635 1.893-4.635 4.465 0 2.571 1.978 4.465 4.635 4.465 2.656 0 4.606-1.894 4.606-4.465 0-2.544-1.95-4.465-4.606-4.465Zm-.057 7.206c-1.61 0-2.656-1.13-2.656-2.741 0-1.64 1.045-2.741 2.656-2.741 1.61 0 2.628 1.074 2.628 2.74 0 1.64-1.045 2.742-2.628 2.742ZM7.658 19.472a2.826 2.826 0 0 0 1.78-2.628c0-1.893-1.497-3.165-3.673-3.165H0v11.982h5.878c2.317 0 3.786-1.3 3.786-3.307-.028-1.243-.876-2.43-2.006-2.825v-.057ZM1.865 15.29h3.589c1.243 0 2.035.678 2.035 1.695 0 1.074-.792 1.696-2.035 1.696H1.865V15.29Zm3.674 8.76H1.865v-3.674H5.54c1.328 0 2.176.707 2.176 1.837s-.848 1.809-2.176 1.809v.028Zm28.145-9.693c0-.396.34-.763.763-.763h8.958a.79.79 0 1 1 0 1.583h-8.958a.792.792 0 0 1-.735-.82h-.028Zm0 10.738c0-.423.34-.79.763-.79h8.958a.79.79 0 0 1 0 1.553h-8.958a.791.791 0 0 1-.763-.763Zm14.92-4.606h-6.103a.791.791 0 0 1 0-1.582h6.104a.81.81 0 0 1 .82.763c0 .452-.368.847-.82.847v-.028Zm93.96-6.81h-1.893v11.982h1.893V13.679Zm-69.968 8.59c0 1.724-1.271 3.59-4.804 3.59-2.571 0-4.097-1.046-4.917-1.922l-.113-.113 1.13-1.328.142.14a5.242 5.242 0 0 0 3.815 1.612c2.063 0 2.826-.933 2.826-1.837 0-1.272-1.498-1.64-3.194-2.063-2.006-.509-4.295-1.074-4.295-3.448 0-1.978 1.893-3.39 4.521-3.39 1.866 0 3.392.565 4.522 1.695l.113.113-1.13 1.3-.142-.141c-.847-.848-2.12-1.357-3.504-1.357-1.441 0-2.458.678-2.458 1.696 0 .989 1.356 1.356 2.91 1.752 2.035.48 4.578 1.13 4.578 3.701Zm55.783-8.76c-3.674 0-6.387 2.572-6.387 6.16 0 3.59 2.685 6.19 6.415 6.19 3.702 0 6.415-2.6 6.415-6.19 0-3.588-2.713-6.16-6.443-6.16Zm0 10.739c-2.657 0-4.437-1.865-4.437-4.607 0-2.74 1.78-4.577 4.465-4.577 2.656 0 4.437 1.836 4.437 4.578 0 2.684-1.809 4.577-4.437 4.577l-.028.029Zm25.008-10.569h-4.464v11.982h4.464c3.872 0 6.613-2.459 6.613-5.935 0-3.532-2.713-6.019-6.613-6.019v-.028Zm0 10.343h-2.571v-8.76h2.571c2.826 0 4.663 1.752 4.663 4.408 0 2.6-1.865 4.352-4.663 4.352Zm-39.929-3.165c1.667-.255 3.165-1.385 3.165-3.533 0-2.176-1.667-3.645-4.097-3.645h-5.2v11.982h1.865v-4.663h2.261l3.193 4.634h2.261l-3.448-4.804v.029Zm-4.239-1.442V15.29h3.109c1.413 0 2.345.847 2.345 2.034 0 1.244-.989 2.091-2.345 2.091h-3.109ZM77.457 13.68h9.862v1.61h-4.013v10.343h-1.893V15.29h-3.956v-1.611Zm15.372 0h8.563v1.61h-6.641v3.392h6.499v1.61h-6.499v3.674h6.641v1.61h-8.563V13.68Z" fill="#528BE6"></path>
    <path d="M51.344 13.51c-3.702 0-6.415 2.6-6.415 6.19 0 3.56 2.713 6.16 6.415 6.16 3.701 0 6.414-2.6 6.414-6.16 0-3.59-2.713-6.218-6.414-6.218v.029Zm0 10.739c-2.657 0-4.465-1.865-4.465-4.578 0-2.741 1.808-4.606 4.465-4.606 2.684 0 4.465 1.865 4.465 4.606 0 2.685-1.81 4.578-4.465 4.578Z" fill="#528BE6"></path>
  </symbol>
  <symbol fill="none" xmlns="http://www.w3.org/2000/svg" viewBox="0 0 160 40" id="epam">
    <path d="M50.1 13.578h5.305V7.646c0-1.657-.776-2.494-2.362-2.494h-.599c-1.569 0-2.362.837-2.362 2.494v5.932h.018Zm0 3.795.018 6.52c0 1.656.793 2.476 2.361 2.476h.688c1.568 0 2.361-.82 2.361-2.476v-3.207h3.613v3.046c0 4.187-2.009 6.324-5.992 6.324h-.793c-3.983 0-5.992-2.12-5.992-5.825V8.287c0-4.685 2.009-6.805 5.992-6.805h.793c3.983 0 5.992 2.12 5.992 6.307l-.017 9.566H50.1v.018ZM65.292 24.872c1.022.927 2.203 1.443 3.437 1.443 1.374 0 2.168-.677 2.168-2.28V7.468c0-1.603-.794-2.28-2.168-2.28-1.234 0-2.415.516-3.437 1.443v18.241ZM61.556 1.803h3.736V3.62c.881-.98 2.397-2.12 4.565-2.12 3.19 0 4.758 2.227 4.758 5.54v17.494c0 3.313-1.568 5.54-4.758 5.54-2.168 0-3.684-1.087-4.565-2.013v9.014h-3.736V1.803ZM85.806 25.033v-9.21l-3.383 1.354c-1.375.57-1.816 1.3-1.816 2.903v4.24c0 1.354.635 2.013 1.816 2.013 1.128 0 2.167-.41 3.383-1.3Zm-8.935-5.024c0-3.474 1.075-4.863 3.93-5.896l5.005-1.817v-4.65c0-1.657-.793-2.53-2.361-2.53h-.6c-1.568 0-2.361.873-2.361 2.53v3.955h-3.63V7.806c0-4.186 2.008-6.306 5.992-6.306h.705c3.983 0 5.992 2.12 5.992 6.306v21.947h-3.737V27.99c-1.022 1.033-2.414 2.066-4.564 2.066-2.996 0-4.371-1.817-4.371-4.916v-5.13ZM104.629 29.753h-3.736V7.236c0-1.39-.635-2.013-1.763-2.013-1.022 0-2.115.41-3.436 1.39v23.14h-3.737V1.803h3.737V3.62c1.092-1.087 2.502-2.138 4.564-2.138 1.921 0 3.19.838 3.878 2.28 1.339-1.193 2.908-2.28 5.058-2.28 2.89 0 4.37 1.87 4.37 4.917v23.337h-3.736v-22.5c0-1.39-.634-2.013-1.762-2.013-1.022 0-2.115.41-3.437 1.39v23.14ZM32 13.988v3.777l9.587 9.494v-5.255l-6.274-6.181 6.274-6.306V4.368L32 13.988ZM118.305 9.517l6.275 6.306-6.275 6.2v5.236l9.588-9.494v-3.777l-9.588-9.62v5.149Z" fill="#528BE6"></path>
  </symbol>
  <symbol fill="none" xmlns="http://www.w3.org/2000/svg" viewBox="0 0 160 40" id="nix">
    <g clip-path="url(#a)">
      <path d="M57 8.474h4.14v2.797h.073c.387-.872 1.059-1.64 2.016-2.306.956-.666 2.088-1 3.396-1 1.137 0 2.111.2 2.923.6.812.4 1.477.926 1.998 1.58.521.654.902 1.404 1.143 2.253.243.848.365 1.72.365 2.614v10.896h-4.36v-9.66c0-.51-.035-1.042-.109-1.599a4.309 4.309 0 0 0-.471-1.507 3.132 3.132 0 0 0-.999-1.108c-.424-.29-.987-.436-1.689-.436-.703 0-1.308.14-1.816.418-.51.278-.926.636-1.253 1.071a4.745 4.745 0 0 0-.745 1.507 5.99 5.99 0 0 0-.254 1.726v9.588H57V8.474Z" fill="#528BE6"></path>
      <path d="M103.921 21.279v5.143l-8.027-6.646-8.027 6.646v-5.143l8.027-6.646 8.027 6.646Z" fill="#A1CBF2"></path>
      <path d="M95.895 19.775v.001ZM95.894 14.632 99 17.204l4.922-4.075V7.986l-8.028 6.646Z" fill="#528BE6"></path>
      <path d="m87.867 13.13 4.921 4.074 3.106-2.572-8.027-6.646v5.143ZM82.64 8.475H78.28v17.434h4.359V8.475ZM60.02 32.664c-.27-.297-.766-.511-1.206-.511-.733 0-1.01.544-1.01.973 0 1.353 2.77.883 2.77 2.707 0 .833-.562 1.65-1.751 1.65a2.405 2.405 0 0 1-1.784-.76l.383-.387c.334.38.863.585 1.344.585.846 0 1.172-.626 1.172-1.072 0-1.312-2.76-.817-2.76-2.706 0-.792.488-1.551 1.58-1.551.61 0 1.23.239 1.644.676l-.383.396ZM64.87 36.922c1.361 0 2.289-.966 2.289-2.385 0-1.419-.928-2.384-2.29-2.384-1.361 0-2.297.965-2.297 2.384 0 1.42.935 2.385 2.297 2.385Zm0-5.33c1.746 0 2.94 1.196 2.94 2.945 0 1.75-1.194 2.946-2.94 2.946-1.755 0-2.95-1.197-2.95-2.946 0-1.75 1.195-2.945 2.95-2.945ZM69.941 36.952h2.246v.53h-2.86v-5.89h.614v5.36ZM77.111 31.592h.63V35.3c0 1.308-.89 2.183-2.192 2.183-1.31 0-2.184-.875-2.184-2.183v-3.708h.63V35.3c0 .966.63 1.616 1.546 1.616.932 0 1.57-.65 1.57-1.616v-3.708ZM81.591 37.483h-.635v-5.361h-1.702v-.53h4.04v.53H81.59v5.36ZM85.316 31.592h-.673v5.89h.673v-5.89ZM89.778 36.922c1.362 0 2.29-.966 2.29-2.385 0-1.419-.928-2.384-2.29-2.384s-2.298.965-2.298 2.384c0 1.42.936 2.385 2.298 2.385Zm0-5.33c1.746 0 2.94 1.196 2.94 2.945 0 1.75-1.194 2.946-2.94 2.946-1.755 0-2.95-1.197-2.95-2.946 0-1.75 1.195-2.945 2.95-2.945ZM94.663 31.592l3.654 4.695v-4.695h.63v5.89h-.428l-3.655-4.695v4.696h-.63v-5.891h.429ZM103.444 32.664c-.269-.297-.766-.511-1.206-.511-.733 0-1.01.544-1.01.973 0 1.353 2.769.883 2.769 2.707 0 .833-.562 1.65-1.751 1.65a2.405 2.405 0 0 1-1.783-.76l.383-.387c.333.38.863.585 1.343.585.847 0 1.173-.626 1.173-1.072 0-1.312-2.761-.817-2.761-2.706 0-.792.489-1.551 1.58-1.551.611 0 1.23.239 1.645.676l-.382.396ZM83.15 3.172a2.689 2.689 0 1 1-5.378 0 2.689 2.689 0 0 1 5.378 0Z" fill="#528BE6"></path>
    </g>
    <defs>
      <clipPath id="a">
        <path fill="#fff" transform="translate(0 .241)" d="M0 0h160v39H0z"></path>
      </clipPath>
    </defs>
  </symbol>
  <symbol fill="none" xmlns="http://www.w3.org/2000/svg" viewBox="0 0 160 40" id="rademadesvg">
    <g clip-path="url(#a)" fill="#528BE6">
      <path d="M10.558 27.517V11.565h6.534c1.808 0 3.291.49 4.45 1.471 1.16.982 1.74 2.273 1.74 3.877 0 1.147-.3 2.143-.904 2.989a5.302 5.302 0 0 1-2.496 1.875l4.328 5.74h-3.453l-3.914-5.24h-3.5v5.24h-2.785Zm2.785-7.802h3.62c1.006 0 1.84-.248 2.505-.743a2.483 2.483 0 0 0 .993-1.99 2.493 2.493 0 0 0-.993-1.99c-.668-.5-1.504-.75-2.505-.75h-3.62v5.473Z"></path>
      <path d="M31.56 4.811v29.46H2.204V4.81h29.354Zm2.32-2.329H0v34h33.88v-34Zm7.89 25.035V11.565h6.533c1.808 0 3.291.49 4.45 1.471 1.16.982 1.741 2.273 1.741 3.877 0 1.146-.302 2.143-.905 2.989a5.303 5.303 0 0 1-2.496 1.875l4.328 5.74h-3.453l-3.914-5.357h-3.5v5.357h-2.785Zm2.784-7.918h3.62c1.006 0 1.84-.248 2.505-.743a2.484 2.484 0 0 0 .993-1.99 2.493 2.493 0 0 0-.993-1.991c-.668-.5-1.504-.749-2.505-.749h-3.62V19.6Zm12.183 2.288a5.986 5.986 0 0 1 .73-2.923 5.519 5.519 0 0 1 1.998-2.106 5.208 5.208 0 0 1 2.761-.77c1.276 0 2.383.341 3.324 1.026v-.775h2.669V27.4h-2.664v-.776a5.514 5.514 0 0 1-3.324 1.038 5.208 5.208 0 0 1-2.762-.77 5.53 5.53 0 0 1-1.997-2.096 5.929 5.929 0 0 1-.735-2.91Zm2.578.042a3.46 3.46 0 0 0 .928 2.42 3.016 3.016 0 0 0 2.32 1.017c1.288 0 2.283-.522 2.987-1.564v-3.769c-.704-1.042-1.7-1.564-2.986-1.564a3.006 3.006 0 0 0-2.32 1.023 3.5 3.5 0 0 0-.925 2.436h-.004Zm11.925.038a5.954 5.954 0 0 1 .731-2.91 5.537 5.537 0 0 1 1.997-2.106 5.2 5.2 0 0 1 2.761-.772c1.276 0 2.383.344 3.324 1.03V11.68h2.669v15.836h-2.664v-.801c-.94.71-2.048 1.064-3.324 1.064a5.2 5.2 0 0 1-2.762-.772 5.526 5.526 0 0 1-1.996-2.111 6.013 6.013 0 0 1-.736-2.93Zm2.578-.06a3.5 3.5 0 0 0 .928 2.438 3.019 3.019 0 0 0 2.32 1.022c1.289 0 2.283-.521 2.987-1.564v-3.792c-.71-1.028-1.706-1.542-2.986-1.542a3.008 3.008 0 0 0-2.32 1.017 3.462 3.462 0 0 0-.924 2.42h-.005ZM99.202 27.4V16.34h2.669v.776c.376-.355.812-.64 1.289-.84a4.443 4.443 0 0 1 1.677-.279 4.732 4.732 0 0 1 2.023.433 4.4 4.4 0 0 1 1.585 1.245 6.174 6.174 0 0 1 1.867-1.273c.643-.27 1.41-.405 2.301-.405 1.381 0 2.529.49 3.441 1.467.912.979 1.367 2.255 1.364 3.83V27.4h-2.668v-5.938c0-.967-.225-1.71-.674-2.232-.449-.522-1.098-.783-1.944-.783-.989 0-1.828.505-2.519 1.514.097.437.146.883.148 1.33v6.11h-2.785v-5.94c0-.966-.232-1.71-.696-2.231-.464-.522-1.122-.783-1.973-.783-.889 0-1.698.492-2.426 1.473v7.48h-2.679Zm21.001-5.513a5.987 5.987 0 0 1 .731-2.923 5.516 5.516 0 0 1 1.997-2.106 5.207 5.207 0 0 1 2.761-.77c1.277 0 2.383.341 3.324 1.026v-.775h2.669V27.4h-2.669v-.776a5.511 5.511 0 0 1-3.324 1.038 5.207 5.207 0 0 1-2.761-.77 5.521 5.521 0 0 1-1.997-2.096 5.933 5.933 0 0 1-.731-2.91Zm2.462.055a3.46 3.46 0 0 0 .928 2.42 3.023 3.023 0 0 0 2.321 1.017c1.288 0 2.282-.522 2.986-1.564v-3.769c-.704-1.042-1.699-1.564-2.986-1.564a3.009 3.009 0 0 0-2.321 1.023 3.504 3.504 0 0 0-.923 2.437h-.005Zm11.693.025a5.953 5.953 0 0 1 .731-2.91 5.538 5.538 0 0 1 1.997-2.106 5.2 5.2 0 0 1 2.761-.772c1.277 0 2.384.344 3.325 1.03V11.68h2.668v15.836h-2.668v-.801c-.94.71-2.049 1.064-3.325 1.064a5.2 5.2 0 0 1-2.761-.772 5.529 5.529 0 0 1-1.997-2.111 6.014 6.014 0 0 1-.731-2.93Zm2.578-.06a3.5 3.5 0 0 0 .929 2.438 3.008 3.008 0 0 0 2.32 1.022c1.288 0 2.282-.521 2.987-1.564v-3.792c-.712-1.028-1.707-1.542-2.987-1.542a3.01 3.01 0 0 0-2.32 1.017 3.46 3.46 0 0 0-.924 2.42h-.005Zm19.604 2.815c-.437.497-1.116.749-2.044.749-.902 0-1.627-.227-2.175-.68a3.237 3.237 0 0 1-1.087-1.815h8.592c.054-.42.078-.842.07-1.265a6.156 6.156 0 0 0-.729-2.966 5.11 5.11 0 0 0-1.96-2.019 5.485 5.485 0 0 0-2.784-.713c-1.766 0-3.197.556-4.293 1.67-1.097 1.115-1.646 2.523-1.648 4.225 0 1.687.549 3.087 1.648 4.2 1.098 1.115 2.529 1.672 4.293 1.672 1.279 0 2.397-.305 3.353-.917a4.403 4.403 0 0 0 1.799-2.14h-3.035Zm-4.265-5.589c.513-.475 1.183-.712 2.011-.712.789 0 1.427.229 1.914.689.487.46.775 1.087.866 1.884h-5.811a3.47 3.47 0 0 1 1.02-1.86Zm-58.811 5.59c-.438.496-1.117.748-2.045.748-.901 0-1.626-.227-2.174-.68a3.236 3.236 0 0 1-1.086-1.815h8.592a8.54 8.54 0 0 0 .07-1.265 6.15 6.15 0 0 0-.73-2.966 5.115 5.115 0 0 0-1.959-2.019 5.484 5.484 0 0 0-2.785-.713c-1.766 0-3.196.556-4.293 1.67-1.096 1.115-1.645 2.523-1.647 4.225 0 1.687.549 3.087 1.647 4.2 1.1 1.115 2.53 1.672 4.293 1.672 1.28 0 2.397-.305 3.354-.917a4.404 4.404 0 0 0 1.798-2.14h-3.035Zm-4.266-5.59c.513-.475 1.184-.712 2.011-.712.79 0 1.427.229 1.915.689.487.46.775 1.088.866 1.886h-5.81a3.468 3.468 0 0 1 1.02-1.863h-.002Z"></path>
    </g>
    <defs>
      <clipPath id="a">
        <path fill="#fff" transform="translate(0 2.482)" d="M0 0h160v34H0z"></path>
      </clipPath>
    </defs>
  </symbol>
  <symbol fill="none" xmlns="http://www.w3.org/2000/svg" viewBox="0 0 160 40" id="sevenpro">
    <g clip-path="url(#a)">
      <g clip-path="url(#b)" fill="#528BE6">
        <path d="M44.865 26.53a1.489 1.489 0 0 1-.493-1.768 1.467 1.467 0 0 1 .813-.798c.181-.073.376-.109.572-.106.33-.004.651.098.917.29 1.107.812 2.317 1.305 3.738 1.305 1.316 0 2.109-.518 2.109-1.368v-.04c0-.81-.502-1.223-2.943-1.844-2.943-.745-4.844-1.553-4.844-4.433v-.04c0-2.63 2.13-4.37 5.114-4.37a8.535 8.535 0 0 1 4.632 1.285 1.464 1.464 0 0 1 .11 2.44c-.26.194-.578.296-.903.293a1.554 1.554 0 0 1-.817-.226c-1.066-.622-2.067-.974-3.069-.974-1.226 0-1.879.559-1.879 1.263v.042c0 .947.627 1.264 3.152 1.905 2.965.767 4.632 1.823 4.632 4.35v.042c.014 2.874-2.2 4.497-5.352 4.497a9.478 9.478 0 0 1-5.49-1.744ZM58.1 26.468V15.16a1.573 1.573 0 0 1 .467-1.133 1.596 1.596 0 0 1 1.141-.463h8.104c.382 0 .748.151 1.018.419.27.267.423.63.424 1.009a1.408 1.408 0 0 1-.426 1.002 1.427 1.427 0 0 1-1.016.407H61.3v2.942h5.574c.381 0 .747.151 1.017.42a1.407 1.407 0 0 1-.002 2.011 1.426 1.426 0 0 1-1.015.407h-5.58v3.044h6.62c.38 0 .746.151 1.015.419.27.268.422.63.423 1.008a1.407 1.407 0 0 1-.424 1.002 1.427 1.427 0 0 1-1.015.409h-8.205a1.606 1.606 0 0 1-1.14-.463 1.58 1.58 0 0 1-.468-1.132ZM75.987 27.027 71.25 15.779c-.114-.24-.178-.5-.188-.765a1.554 1.554 0 0 1 .468-1.124 1.578 1.578 0 0 1 1.138-.452c.357-.01.709.092 1.003.294.294.201.515.49.632.826l3.653 9.39 3.695-9.489c.127-.301.342-.559.617-.74.275-.18.597-.275.927-.274a1.56 1.56 0 0 1 1.117.435 1.537 1.537 0 0 1 .469 1.097 1.83 1.83 0 0 1-.166.705l-4.782 11.357c-.332.787-.937 1.264-1.816 1.264h-.208c-.876-.012-1.481-.49-1.82-1.276ZM86.828 26.468V15.16a1.572 1.572 0 0 1 .467-1.133 1.596 1.596 0 0 1 1.142-.463h8.097c.382 0 .748.151 1.018.419.27.267.423.63.424 1.009a1.406 1.406 0 0 1-.426 1.002 1.427 1.427 0 0 1-1.016.407h-6.513v2.942h5.574c.382 0 .749.151 1.019.419.27.268.422.631.423 1.01a1.408 1.408 0 0 1-.426 1.002 1.427 1.427 0 0 1-1.016.407h-5.574v3.044h6.618c.382 0 .747.151 1.017.419a1.403 1.403 0 0 1-.001 2.011 1.427 1.427 0 0 1-1.016.408h-8.202a1.608 1.608 0 0 1-1.14-.463 1.585 1.585 0 0 1-.47-1.132ZM100.461 15.076a1.569 1.569 0 0 1 .466-1.132 1.607 1.607 0 0 1 1.14-.464h.336c.771 0 1.226.373 1.669.932l6.199 8.079v-7.477c0-.418.167-.818.465-1.113a1.59 1.59 0 0 1 2.707 1.113V26.55a1.571 1.571 0 0 1-.467 1.132 1.605 1.605 0 0 1-1.141.463h-.103c-.773 0-1.227-.373-1.671-.933l-6.428-8.368v7.768c0 .418-.167.818-.465 1.113a1.594 1.594 0 0 1-2.243 0 1.57 1.57 0 0 1-.464-1.113V15.076ZM116.537 14.37a.827.827 0 0 1 .818-.826h4.655c3.296 0 5.47 1.739 5.47 4.597v.042c0 3.129-2.631 4.743-5.742 4.743h-3.543v4.392a.812.812 0 0 1-.501.787.828.828 0 0 1-1.149-.787l-.008-12.948Zm5.261 7.066c2.421 0 4.007-1.286 4.007-3.19v-.043c0-2.071-1.564-3.149-3.924-3.149h-3.694v6.382h3.611ZM130.066 14.37a.834.834 0 0 1 .817-.826h5.464c1.796 0 3.234.54 4.154 1.448a3.984 3.984 0 0 1 1.127 2.86v.042c0 2.382-1.635 3.77-3.904 4.205l3.633 4.639a.888.888 0 0 1 .272.601.853.853 0 0 1-.257.567.867.867 0 0 1-.577.245.973.973 0 0 1-.773-.436l-4.113-5.303h-4.195v4.91a.817.817 0 0 1-.824.818.817.817 0 0 1-.824-.818V14.37Zm6.145 6.569c2.191 0 3.756-1.119 3.756-2.983v-.043c0-1.781-1.376-2.859-3.736-2.859h-4.517v5.885h4.497ZM144.097 20.838v-.041c0-3.999 3.026-7.5 7.472-7.5 4.446 0 7.432 3.458 7.432 7.458v.042c0 3.998-3.029 7.497-7.474 7.497-4.446 0-7.43-3.462-7.43-7.456Zm13.192 0v-.041c0-3.294-2.423-5.988-5.762-5.988-3.34 0-5.723 2.652-5.723 5.95v.042c0 3.292 2.423 5.987 5.762 5.987 3.34 0 5.723-2.66 5.723-5.95ZM23.103 30.98c-.451-.588-1.138-1.894-1.138-4.383 0-2.49.681-3.795 1.138-4.384a4.418 4.418 0 0 0 2.289-1.948c.51-.896.686-1.94.5-2.952a4.388 4.388 0 0 0-1.52-2.585 4.45 4.45 0 0 0-5.672 0 4.366 4.366 0 0 0-1.02 5.536 4.418 4.418 0 0 0 2.289 1.95c.452.588 1.138 1.893 1.138 4.383s-.681 3.795-1.138 4.382a4.419 4.419 0 0 0-2.289 1.95 4.366 4.366 0 0 0 1.02 5.535 4.45 4.45 0 0 0 2.836 1.02 4.45 4.45 0 0 0 2.836-1.02 4.388 4.388 0 0 0 1.52-2.584 4.365 4.365 0 0 0-.5-2.952 4.419 4.419 0 0 0-2.29-1.949Z"></path>
        <path d="M17.4 33.532c-.593.45-1.908 1.132-4.418 1.132-2.51 0-3.825-.677-4.416-1.132a4.404 4.404 0 0 0-1.964-2.271 4.457 4.457 0 0 0-2.974-.497 4.435 4.435 0 0 0-2.605 1.509 4.374 4.374 0 0 0-1.027 2.814c0 1.028.364 2.024 1.027 2.814a4.435 4.435 0 0 0 2.605 1.508c1.02.185 2.072.01 2.974-.496a4.404 4.404 0 0 0 1.964-2.271c.591-.45 1.908-1.13 4.416-1.13 2.508 0 3.825.677 4.417 1.13a4.403 4.403 0 0 0 1.964 2.27 4.457 4.457 0 0 0 2.973.496A4.434 4.434 0 0 0 24.94 37.9a4.373 4.373 0 0 0 1.026-2.813 4.373 4.373 0 0 0-1.026-2.813 4.434 4.434 0 0 0-2.604-1.509 4.457 4.457 0 0 0-2.973.497 4.403 4.403 0 0 0-1.964 2.27Z"></path>
        <path d="M5.996 30.98c-.45-.582-1.132-1.884-1.132-4.378 0-2.493.681-3.795 1.138-4.383a4.419 4.419 0 0 0 2.289-1.95c.51-.894.686-1.939.5-2.95a4.387 4.387 0 0 0-1.52-2.585 4.449 4.449 0 0 0-5.672 0 4.387 4.387 0 0 0-1.52 2.585 4.365 4.365 0 0 0 .5 2.95 4.419 4.419 0 0 0 2.29 1.95c.451.588 1.138 1.893 1.138 4.383s-.681 3.796-1.138 4.383a4.419 4.419 0 0 0-2.288 1.949 4.365 4.365 0 0 0-.5 2.95A4.387 4.387 0 0 0 1.6 38.47a4.449 4.449 0 0 0 5.671 0 4.387 4.387 0 0 0 1.52-2.585 4.365 4.365 0 0 0-.5-2.951 4.419 4.419 0 0 0-2.289-1.95l-.007-.005Z"></path>
        <path d="M17.4 16.556c-.593.45-1.908 1.13-4.418 1.13-2.51 0-3.825-.675-4.416-1.13a4.407 4.407 0 0 0-1.965-2.273 4.46 4.46 0 0 0-5.583 1.012 4.377 4.377 0 0 0 0 5.632 4.46 4.46 0 0 0 5.583 1.012 4.407 4.407 0 0 0 1.965-2.273c.591-.447 1.908-1.128 4.416-1.128 2.508 0 3.825.677 4.417 1.128a4.402 4.402 0 0 0 1.964 2.27 4.456 4.456 0 0 0 2.973.497 4.434 4.434 0 0 0 2.604-1.509 4.373 4.373 0 0 0 1.026-2.813 4.373 4.373 0 0 0-1.026-2.813 4.434 4.434 0 0 0-2.604-1.508 4.456 4.456 0 0 0-2.973.496 4.403 4.403 0 0 0-1.964 2.27Z"></path>
        <path d="M34.684 19.747c-.45-.588-1.137-1.893-1.137-4.382s.68-3.796 1.137-4.385c.508-.19.977-.472 1.382-.831.017-.014.032-.031.05-.046a3.89 3.89 0 0 0 .202-.195l.04-.043c.117-.125.226-.256.328-.392.02-.029.043-.057.062-.088.041-.056.08-.115.118-.175.038-.059.064-.101.092-.152l.093-.165c.03-.056.064-.136.095-.198l.066-.143c.046-.114.09-.229.126-.346.013-.035.02-.073.033-.108.026-.09.05-.186.07-.278l.028-.135c.015-.092.03-.184.041-.27 0-.043.012-.085.015-.127a4.365 4.365 0 0 0-1.276-3.513 4.43 4.43 0 0 0-3.132-1.287c-.136 0-.272.008-.408.019l-.127.015a4.79 4.79 0 0 0-.28.043l-.136.026a5.354 5.354 0 0 0-.272.071l-.11.03c-.12.038-.236.082-.35.127-.051.02-.098.045-.147.068-.049.023-.136.06-.196.092l-.17.093c-.05.028-.1.06-.147.09-.048.029-.124.075-.183.117-.027.017-.05.038-.078.055a5.383 5.383 0 0 0-.408.337l-.038.034a3.517 3.517 0 0 0-.24.251 4.313 4.313 0 0 0-.846 1.364c-.592.447-1.908 1.128-4.415 1.128s-3.826-.676-4.418-1.128a4.404 4.404 0 0 0-1.965-2.27 4.457 4.457 0 0 0-2.974-.497 4.435 4.435 0 0 0-2.604 1.508 4.374 4.374 0 0 0-1.027 2.814c0 1.029.363 2.025 1.027 2.814a4.435 4.435 0 0 0 2.604 1.509c1.02.185 2.072.01 2.974-.496a4.404 4.404 0 0 0 1.965-2.272c.592-.449 1.907-1.13 4.418-1.13s3.815.676 4.413 1.128c.135.302.288.596.458.88a7.423 7.423 0 0 0 .203.28c.05.06.101.12.153.178.027.03.158.17.2.21.042.04.08.08.124.12.044.04.059.051.087.08.059.05.116.097.177.144.018.014.033.028.05.038.073.058.15.113.231.168h.01c.275.182.57.332.878.449.454.588 1.137 1.893 1.137 4.382 0 2.49-.681 3.794-1.137 4.382a4.417 4.417 0 0 0-2.287 1.949 4.364 4.364 0 0 0-.5 2.95 4.386 4.386 0 0 0 1.52 2.584 4.447 4.447 0 0 0 2.834 1.019c1.036 0 2.04-.36 2.835-1.02a4.365 4.365 0 0 0 1.02-5.534 4.418 4.418 0 0 0-2.288-1.948v.008Z"></path>
      </g>
    </g>
    <defs>
      <clipPath id="a">
        <path fill="#fff" transform="translate(0 .241)" d="M0 0h160v39H0z"></path>
      </clipPath>
      <clipPath id="b">
        <path fill="#fff" transform="translate(0 2.482)" d="M0 0h159v37H0z"></path>
      </clipPath>
    </defs>
  </symbol>
  <symbol fill="none" xmlns="http://www.w3.org/2000/svg" viewBox="0 0 160 40" id="softserve">
    <path d="M27.68 21.02c-1.634-.637-3.044-1.187-3.044-2.457 0-1.468 1.337-1.991 2.587-1.991 2.165 0 3.314 1.196 3.325 1.208l.11.117.97-1.624-.06-.067c-.056-.062-1.397-1.53-4.29-1.53-2.303 0-4.782 1.216-4.782 3.887 0 2.526 2.282 3.429 4.294 4.226 1.636.647 3.048 1.207 3.048 2.466 0 1.413-1.313 2.045-2.615 2.045-2.459 0-3.959-1.597-3.974-1.613l-.099-.107L22 27.103l.065.074c.019.021.457.515 1.31 1.014.786.459 2.087 1.006 3.821 1.006 2.771 0 4.782-1.658 4.782-3.942 0-2.558-2.284-3.449-4.299-4.235ZM41.515 14.676c-4.11 0-7.328 3.16-7.328 7.193 0 4.109 3.219 7.328 7.328 7.328 4.11 0 7.329-3.22 7.329-7.328 0-4.034-3.22-7.193-7.329-7.193Zm5.188 7.193c0 3.046-2.278 5.431-5.188 5.431-2.91 0-5.188-2.385-5.188-5.431 0-2.955 2.279-5.27 5.188-5.27 2.91 0 5.188 2.315 5.188 5.27ZM57.906 9.538a5.685 5.685 0 0 0-.859-.056c-1.452 0-4.83.505-4.83 5.182v.527h-1.856v1.786h1.856v11.905h2.084V16.977h3.49v-1.786h-3.49v-.527c0-1.228.381-3.288 2.936-3.288.36 0 .622.052.625.052l.146.029V9.555l-.102-.017ZM67.745 27.192l-.151.033c-.002 0-.242.052-.608.052-1.118 0-2.995-.46-2.995-3.546v-6.715h3.478v-1.822H63.99v-4.002h-2.097v4.002h-1.85v1.822h1.823v6.908c0 4.598 3.103 5.285 4.953 5.285a5 5 0 0 0 .823-.058l.102-.018v-1.941ZM71.98 24.749s1.522 1.523 3.78 1.523c.978 0 1.821-.435 1.821-1.25 0-2.068-6.744-1.796-6.744-6.255 0-2.584 2.312-4.08 5.303-4.08 3.127 0 4.65 1.578 4.65 1.578l-1.278 2.556s-1.278-1.197-3.4-1.197c-.896 0-1.767.381-1.767 1.251 0 1.958 6.744 1.713 6.744 6.173 0 2.311-2.012 4.16-5.302 4.16-3.454 0-5.385-2.039-5.385-2.039l1.578-2.42ZM90.397 14.688c3.997 0 6.145 2.909 6.145 6.58 0 .408-.081 1.333-.081 1.333h-9.572c.217 2.42 2.094 3.67 4.16 3.67 2.23 0 3.998-1.522 3.998-1.522l1.332 2.474s-2.12 1.986-5.574 1.986c-4.596 0-7.452-3.318-7.452-7.261 0-4.269 2.91-7.26 7.044-7.26Zm2.665 5.547c-.055-1.877-1.224-2.883-2.747-2.883-1.767 0-2.991 1.088-3.317 2.883h6.064ZM100.02 15.014h3.317v2.393c0 .516-.054.979-.054.979h.054c.626-1.985 2.284-3.563 4.405-3.563.327 0 .626.055.626.055v3.4s-.354-.055-.816-.055c-1.468 0-3.127.843-3.78 2.91-.217.68-.299 1.44-.299 2.256v5.493h-3.453V15.014ZM109.871 15.014h3.644l2.882 8.592c.272.816.462 1.738.49 1.738h.054c.028 0 .218-.922.49-1.738l2.882-8.592h3.644l-4.976 13.868h-4.08l-5.03-13.868ZM131.852 14.688c3.997 0 6.146 2.909 6.146 6.58 0 .408-.082 1.333-.082 1.333h-9.572c.217 2.42 2.094 3.67 4.161 3.67 2.229 0 3.997-1.522 3.997-1.522l1.332 2.474s-2.121 1.986-5.574 1.986c-4.596 0-7.451-3.318-7.451-7.261 0-4.269 2.91-7.26 7.043-7.26Zm2.665 5.547c-.054-1.877-1.224-2.883-2.747-2.883-1.767 0-2.991 1.088-3.317 2.883h6.064Z" fill="#528BE6"></path>
  </symbol>
  <symbol viewBox="0 0 0 0" id="sprite">
    <symbol fill="none" xmlns="http://www.w3.org/2000/svg" viewBox="0 0 160 40" id="rademadesvg">
      <g clip-path="url(#a)" fill="#528BE6">
        <path d="M10.558 27.517V11.565h6.534c1.808 0 3.291.49 4.45 1.471 1.16.982 1.74 2.273 1.74 3.877 0 1.147-.3 2.143-.904 2.989a5.302 5.302 0 0 1-2.496 1.875l4.328 5.74h-3.453l-3.914-5.24h-3.5v5.24h-2.785Zm2.785-7.802h3.62c1.006 0 1.84-.248 2.505-.743a2.483 2.483 0 0 0 .993-1.99 2.493 2.493 0 0 0-.993-1.99c-.668-.5-1.504-.75-2.505-.75h-3.62v5.473Z"></path>
        <path d="M31.56 4.811v29.46H2.204V4.81h29.354Zm2.32-2.329H0v34h33.88v-34Zm7.89 25.035V11.565h6.533c1.808 0 3.291.49 4.45 1.471 1.16.982 1.741 2.273 1.741 3.877 0 1.146-.302 2.143-.905 2.989a5.303 5.303 0 0 1-2.496 1.875l4.328 5.74h-3.453l-3.914-5.357h-3.5v5.357h-2.785Zm2.784-7.918h3.62c1.006 0 1.84-.248 2.505-.743a2.484 2.484 0 0 0 .993-1.99 2.493 2.493 0 0 0-.993-1.991c-.668-.5-1.504-.749-2.505-.749h-3.62V19.6Zm12.183 2.288a5.986 5.986 0 0 1 .73-2.923 5.519 5.519 0 0 1 1.998-2.106 5.208 5.208 0 0 1 2.761-.77c1.276 0 2.383.341 3.324 1.026v-.775h2.669V27.4h-2.664v-.776a5.514 5.514 0 0 1-3.324 1.038 5.208 5.208 0 0 1-2.762-.77 5.53 5.53 0 0 1-1.997-2.096 5.929 5.929 0 0 1-.735-2.91Zm2.578.042a3.46 3.46 0 0 0 .928 2.42 3.016 3.016 0 0 0 2.32 1.017c1.288 0 2.283-.522 2.987-1.564v-3.769c-.704-1.042-1.7-1.564-2.986-1.564a3.006 3.006 0 0 0-2.32 1.023 3.5 3.5 0 0 0-.925 2.436h-.004Zm11.925.038a5.954 5.954 0 0 1 .731-2.91 5.537 5.537 0 0 1 1.997-2.106 5.2 5.2 0 0 1 2.761-.772c1.276 0 2.383.344 3.324 1.03V11.68h2.669v15.836h-2.664v-.801c-.94.71-2.048 1.064-3.324 1.064a5.2 5.2 0 0 1-2.762-.772 5.526 5.526 0 0 1-1.996-2.111 6.013 6.013 0 0 1-.736-2.93Zm2.578-.06a3.5 3.5 0 0 0 .928 2.438 3.019 3.019 0 0 0 2.32 1.022c1.289 0 2.283-.521 2.987-1.564v-3.792c-.71-1.028-1.706-1.542-2.986-1.542a3.008 3.008 0 0 0-2.32 1.017 3.462 3.462 0 0 0-.924 2.42h-.005ZM99.202 27.4V16.34h2.669v.776c.376-.355.812-.64 1.289-.84a4.443 4.443 0 0 1 1.677-.279 4.732 4.732 0 0 1 2.023.433 4.4 4.4 0 0 1 1.585 1.245 6.174 6.174 0 0 1 1.867-1.273c.643-.27 1.41-.405 2.301-.405 1.381 0 2.529.49 3.441 1.467.912.979 1.367 2.255 1.364 3.83V27.4h-2.668v-5.938c0-.967-.225-1.71-.674-2.232-.449-.522-1.098-.783-1.944-.783-.989 0-1.828.505-2.519 1.514.097.437.146.883.148 1.33v6.11h-2.785v-5.94c0-.966-.232-1.71-.696-2.231-.464-.522-1.122-.783-1.973-.783-.889 0-1.698.492-2.426 1.473v7.48h-2.679Zm21.001-5.513a5.987 5.987 0 0 1 .731-2.923 5.516 5.516 0 0 1 1.997-2.106 5.207 5.207 0 0 1 2.761-.77c1.277 0 2.383.341 3.324 1.026v-.775h2.669V27.4h-2.669v-.776a5.511 5.511 0 0 1-3.324 1.038 5.207 5.207 0 0 1-2.761-.77 5.521 5.521 0 0 1-1.997-2.096 5.933 5.933 0 0 1-.731-2.91Zm2.462.055a3.46 3.46 0 0 0 .928 2.42 3.023 3.023 0 0 0 2.321 1.017c1.288 0 2.282-.522 2.986-1.564v-3.769c-.704-1.042-1.699-1.564-2.986-1.564a3.009 3.009 0 0 0-2.321 1.023 3.504 3.504 0 0 0-.923 2.437h-.005Zm11.693.025a5.953 5.953 0 0 1 .731-2.91 5.538 5.538 0 0 1 1.997-2.106 5.2 5.2 0 0 1 2.761-.772c1.277 0 2.384.344 3.325 1.03V11.68h2.668v15.836h-2.668v-.801c-.94.71-2.049 1.064-3.325 1.064a5.2 5.2 0 0 1-2.761-.772 5.529 5.529 0 0 1-1.997-2.111 6.014 6.014 0 0 1-.731-2.93Zm2.578-.06a3.5 3.5 0 0 0 .929 2.438 3.008 3.008 0 0 0 2.32 1.022c1.288 0 2.282-.521 2.987-1.564v-3.792c-.712-1.028-1.707-1.542-2.987-1.542a3.01 3.01 0 0 0-2.32 1.017 3.46 3.46 0 0 0-.924 2.42h-.005Zm19.604 2.815c-.437.497-1.116.749-2.044.749-.902 0-1.627-.227-2.175-.68a3.237 3.237 0 0 1-1.087-1.815h8.592c.054-.42.078-.842.07-1.265a6.156 6.156 0 0 0-.729-2.966 5.11 5.11 0 0 0-1.96-2.019 5.485 5.485 0 0 0-2.784-.713c-1.766 0-3.197.556-4.293 1.67-1.097 1.115-1.646 2.523-1.648 4.225 0 1.687.549 3.087 1.648 4.2 1.098 1.115 2.529 1.672 4.293 1.672 1.279 0 2.397-.305 3.353-.917a4.403 4.403 0 0 0 1.799-2.14h-3.035Zm-4.265-5.589c.513-.475 1.183-.712 2.011-.712.789 0 1.427.229 1.914.689.487.46.775 1.087.866 1.884h-5.811a3.47 3.47 0 0 1 1.02-1.86Zm-58.811 5.59c-.438.496-1.117.748-2.045.748-.901 0-1.626-.227-2.174-.68a3.236 3.236 0 0 1-1.086-1.815h8.592a8.54 8.54 0 0 0 .07-1.265 6.15 6.15 0 0 0-.73-2.966 5.115 5.115 0 0 0-1.959-2.019 5.484 5.484 0 0 0-2.785-.713c-1.766 0-3.196.556-4.293 1.67-1.096 1.115-1.645 2.523-1.647 4.225 0 1.687.549 3.087 1.647 4.2 1.1 1.115 2.53 1.672 4.293 1.672 1.28 0 2.397-.305 3.354-.917a4.404 4.404 0 0 0 1.798-2.14h-3.035Zm-4.266-5.59c.513-.475 1.184-.712 2.011-.712.79 0 1.427.229 1.915.689.487.46.775 1.088.866 1.886h-5.81a3.468 3.468 0 0 1 1.02-1.863h-.002Z"></path>
      </g>
      <defs>
        <clipPath id="a">
          <path fill="#fff" transform="translate(0 2.482)" d="M0 0h160v34H0z"></path>
        </clipPath>
      </defs>
    </symbol>
    <symbol fill="none" xmlns="http://www.w3.org/2000/svg" viewBox="0 0 160 40" id="epam">
      <path d="M50.1 13.578h5.305V7.646c0-1.657-.776-2.494-2.362-2.494h-.599c-1.569 0-2.362.837-2.362 2.494v5.932h.018Zm0 3.795.018 6.52c0 1.656.793 2.476 2.361 2.476h.688c1.568 0 2.361-.82 2.361-2.476v-3.207h3.613v3.046c0 4.187-2.009 6.324-5.992 6.324h-.793c-3.983 0-5.992-2.12-5.992-5.825V8.287c0-4.685 2.009-6.805 5.992-6.805h.793c3.983 0 5.992 2.12 5.992 6.307l-.017 9.566H50.1v.018ZM65.292 24.872c1.022.927 2.203 1.443 3.437 1.443 1.374 0 2.168-.677 2.168-2.28V7.468c0-1.603-.794-2.28-2.168-2.28-1.234 0-2.415.516-3.437 1.443v18.241ZM61.556 1.803h3.736V3.62c.881-.98 2.397-2.12 4.565-2.12 3.19 0 4.758 2.227 4.758 5.54v17.494c0 3.313-1.568 5.54-4.758 5.54-2.168 0-3.684-1.087-4.565-2.013v9.014h-3.736V1.803ZM85.806 25.033v-9.21l-3.383 1.354c-1.375.57-1.816 1.3-1.816 2.903v4.24c0 1.354.635 2.013 1.816 2.013 1.128 0 2.167-.41 3.383-1.3Zm-8.935-5.024c0-3.474 1.075-4.863 3.93-5.896l5.005-1.817v-4.65c0-1.657-.793-2.53-2.361-2.53h-.6c-1.568 0-2.361.873-2.361 2.53v3.955h-3.63V7.806c0-4.186 2.008-6.306 5.992-6.306h.705c3.983 0 5.992 2.12 5.992 6.306v21.947h-3.737V27.99c-1.022 1.033-2.414 2.066-4.564 2.066-2.996 0-4.371-1.817-4.371-4.916v-5.13ZM104.629 29.753h-3.736V7.236c0-1.39-.635-2.013-1.763-2.013-1.022 0-2.115.41-3.436 1.39v23.14h-3.737V1.803h3.737V3.62c1.092-1.087 2.502-2.138 4.564-2.138 1.921 0 3.19.838 3.878 2.28 1.339-1.193 2.908-2.28 5.058-2.28 2.89 0 4.37 1.87 4.37 4.917v23.337h-3.736v-22.5c0-1.39-.634-2.013-1.762-2.013-1.022 0-2.115.41-3.437 1.39v23.14ZM32 13.988v3.777l9.587 9.494v-5.255l-6.274-6.181 6.274-6.306V4.368L32 13.988ZM118.305 9.517l6.275 6.306-6.275 6.2v5.236l9.588-9.494v-3.777l-9.588-9.62v5.149Z" fill="#528BE6"></path>
    </symbol>
    <symbol fill="none" xmlns="http://www.w3.org/2000/svg" viewBox="0 0 160 40" id="softserve">
      <path d="M27.68 21.02c-1.634-.637-3.044-1.187-3.044-2.457 0-1.468 1.337-1.991 2.587-1.991 2.165 0 3.314 1.196 3.325 1.208l.11.117.97-1.624-.06-.067c-.056-.062-1.397-1.53-4.29-1.53-2.303 0-4.782 1.216-4.782 3.887 0 2.526 2.282 3.429 4.294 4.226 1.636.647 3.048 1.207 3.048 2.466 0 1.413-1.313 2.045-2.615 2.045-2.459 0-3.959-1.597-3.974-1.613l-.099-.107L22 27.103l.065.074c.019.021.457.515 1.31 1.014.786.459 2.087 1.006 3.821 1.006 2.771 0 4.782-1.658 4.782-3.942 0-2.558-2.284-3.449-4.299-4.235ZM41.515 14.676c-4.11 0-7.328 3.16-7.328 7.193 0 4.109 3.219 7.328 7.328 7.328 4.11 0 7.329-3.22 7.329-7.328 0-4.034-3.22-7.193-7.329-7.193Zm5.188 7.193c0 3.046-2.278 5.431-5.188 5.431-2.91 0-5.188-2.385-5.188-5.431 0-2.955 2.279-5.27 5.188-5.27 2.91 0 5.188 2.315 5.188 5.27ZM57.906 9.538a5.685 5.685 0 0 0-.859-.056c-1.452 0-4.83.505-4.83 5.182v.527h-1.856v1.786h1.856v11.905h2.084V16.977h3.49v-1.786h-3.49v-.527c0-1.228.381-3.288 2.936-3.288.36 0 .622.052.625.052l.146.029V9.555l-.102-.017ZM67.745 27.192l-.151.033c-.002 0-.242.052-.608.052-1.118 0-2.995-.46-2.995-3.546v-6.715h3.478v-1.822H63.99v-4.002h-2.097v4.002h-1.85v1.822h1.823v6.908c0 4.598 3.103 5.285 4.953 5.285a5 5 0 0 0 .823-.058l.102-.018v-1.941ZM71.98 24.749s1.522 1.523 3.78 1.523c.978 0 1.821-.435 1.821-1.25 0-2.068-6.744-1.796-6.744-6.255 0-2.584 2.312-4.08 5.303-4.08 3.127 0 4.65 1.578 4.65 1.578l-1.278 2.556s-1.278-1.197-3.4-1.197c-.896 0-1.767.381-1.767 1.251 0 1.958 6.744 1.713 6.744 6.173 0 2.311-2.012 4.16-5.302 4.16-3.454 0-5.385-2.039-5.385-2.039l1.578-2.42ZM90.397 14.688c3.997 0 6.145 2.909 6.145 6.58 0 .408-.081 1.333-.081 1.333h-9.572c.217 2.42 2.094 3.67 4.16 3.67 2.23 0 3.998-1.522 3.998-1.522l1.332 2.474s-2.12 1.986-5.574 1.986c-4.596 0-7.452-3.318-7.452-7.261 0-4.269 2.91-7.26 7.044-7.26Zm2.665 5.547c-.055-1.877-1.224-2.883-2.747-2.883-1.767 0-2.991 1.088-3.317 2.883h6.064ZM100.02 15.014h3.317v2.393c0 .516-.054.979-.054.979h.054c.626-1.985 2.284-3.563 4.405-3.563.327 0 .626.055.626.055v3.4s-.354-.055-.816-.055c-1.468 0-3.127.843-3.78 2.91-.217.68-.299 1.44-.299 2.256v5.493h-3.453V15.014ZM109.871 15.014h3.644l2.882 8.592c.272.816.462 1.738.49 1.738h.054c.028 0 .218-.922.49-1.738l2.882-8.592h3.644l-4.976 13.868h-4.08l-5.03-13.868ZM131.852 14.688c3.997 0 6.146 2.909 6.146 6.58 0 .408-.082 1.333-.082 1.333h-9.572c.217 2.42 2.094 3.67 4.161 3.67 2.229 0 3.997-1.522 3.997-1.522l1.332 2.474s-2.121 1.986-5.574 1.986c-4.596 0-7.451-3.318-7.451-7.261 0-4.269 2.91-7.26 7.043-7.26Zm2.665 5.547c-.054-1.877-1.224-2.883-2.747-2.883-1.767 0-2.991 1.088-3.317 2.883h6.064Z" fill="#528BE6"></path>
    </symbol>
    <symbol fill="none" xmlns="http://www.w3.org/2000/svg" viewBox="0 0 160 40" id="sevenpro">
      <g clip-path="url(#a)">
        <g clip-path="url(#b)" fill="#528BE6">
          <path d="M44.865 26.53a1.489 1.489 0 0 1-.493-1.768 1.467 1.467 0 0 1 .813-.798c.181-.073.376-.109.572-.106.33-.004.651.098.917.29 1.107.812 2.317 1.305 3.738 1.305 1.316 0 2.109-.518 2.109-1.368v-.04c0-.81-.502-1.223-2.943-1.844-2.943-.745-4.844-1.553-4.844-4.433v-.04c0-2.63 2.13-4.37 5.114-4.37a8.535 8.535 0 0 1 4.632 1.285 1.464 1.464 0 0 1 .11 2.44c-.26.194-.578.296-.903.293a1.554 1.554 0 0 1-.817-.226c-1.066-.622-2.067-.974-3.069-.974-1.226 0-1.879.559-1.879 1.263v.042c0 .947.627 1.264 3.152 1.905 2.965.767 4.632 1.823 4.632 4.35v.042c.014 2.874-2.2 4.497-5.352 4.497a9.478 9.478 0 0 1-5.49-1.744ZM58.1 26.468V15.16a1.573 1.573 0 0 1 .467-1.133 1.596 1.596 0 0 1 1.141-.463h8.104c.382 0 .748.151 1.018.419.27.267.423.63.424 1.009a1.408 1.408 0 0 1-.426 1.002 1.427 1.427 0 0 1-1.016.407H61.3v2.942h5.574c.381 0 .747.151 1.017.42a1.407 1.407 0 0 1-.002 2.011 1.426 1.426 0 0 1-1.015.407h-5.58v3.044h6.62c.38 0 .746.151 1.015.419.27.268.422.63.423 1.008a1.407 1.407 0 0 1-.424 1.002 1.427 1.427 0 0 1-1.015.409h-8.205a1.606 1.606 0 0 1-1.14-.463 1.58 1.58 0 0 1-.468-1.132ZM75.987 27.027 71.25 15.779c-.114-.24-.178-.5-.188-.765a1.554 1.554 0 0 1 .468-1.124 1.578 1.578 0 0 1 1.138-.452c.357-.01.709.092 1.003.294.294.201.515.49.632.826l3.653 9.39 3.695-9.489c.127-.301.342-.559.617-.74.275-.18.597-.275.927-.274a1.56 1.56 0 0 1 1.117.435 1.537 1.537 0 0 1 .469 1.097 1.83 1.83 0 0 1-.166.705l-4.782 11.357c-.332.787-.937 1.264-1.816 1.264h-.208c-.876-.012-1.481-.49-1.82-1.276ZM86.828 26.468V15.16a1.572 1.572 0 0 1 .467-1.133 1.596 1.596 0 0 1 1.142-.463h8.097c.382 0 .748.151 1.018.419.27.267.423.63.424 1.009a1.406 1.406 0 0 1-.426 1.002 1.427 1.427 0 0 1-1.016.407h-6.513v2.942h5.574c.382 0 .749.151 1.019.419.27.268.422.631.423 1.01a1.408 1.408 0 0 1-.426 1.002 1.427 1.427 0 0 1-1.016.407h-5.574v3.044h6.618c.382 0 .747.151 1.017.419a1.403 1.403 0 0 1-.001 2.011 1.427 1.427 0 0 1-1.016.408h-8.202a1.608 1.608 0 0 1-1.14-.463 1.585 1.585 0 0 1-.47-1.132ZM100.461 15.076a1.569 1.569 0 0 1 .466-1.132 1.607 1.607 0 0 1 1.14-.464h.336c.771 0 1.226.373 1.669.932l6.199 8.079v-7.477c0-.418.167-.818.465-1.113a1.59 1.59 0 0 1 2.707 1.113V26.55a1.571 1.571 0 0 1-.467 1.132 1.605 1.605 0 0 1-1.141.463h-.103c-.773 0-1.227-.373-1.671-.933l-6.428-8.368v7.768c0 .418-.167.818-.465 1.113a1.594 1.594 0 0 1-2.243 0 1.57 1.57 0 0 1-.464-1.113V15.076ZM116.537 14.37a.827.827 0 0 1 .818-.826h4.655c3.296 0 5.47 1.739 5.47 4.597v.042c0 3.129-2.631 4.743-5.742 4.743h-3.543v4.392a.812.812 0 0 1-.501.787.828.828 0 0 1-1.149-.787l-.008-12.948Zm5.261 7.066c2.421 0 4.007-1.286 4.007-3.19v-.043c0-2.071-1.564-3.149-3.924-3.149h-3.694v6.382h3.611ZM130.066 14.37a.834.834 0 0 1 .817-.826h5.464c1.796 0 3.234.54 4.154 1.448a3.984 3.984 0 0 1 1.127 2.86v.042c0 2.382-1.635 3.77-3.904 4.205l3.633 4.639a.888.888 0 0 1 .272.601.853.853 0 0 1-.257.567.867.867 0 0 1-.577.245.973.973 0 0 1-.773-.436l-4.113-5.303h-4.195v4.91a.817.817 0 0 1-.824.818.817.817 0 0 1-.824-.818V14.37Zm6.145 6.569c2.191 0 3.756-1.119 3.756-2.983v-.043c0-1.781-1.376-2.859-3.736-2.859h-4.517v5.885h4.497ZM144.097 20.838v-.041c0-3.999 3.026-7.5 7.472-7.5 4.446 0 7.432 3.458 7.432 7.458v.042c0 3.998-3.029 7.497-7.474 7.497-4.446 0-7.43-3.462-7.43-7.456Zm13.192 0v-.041c0-3.294-2.423-5.988-5.762-5.988-3.34 0-5.723 2.652-5.723 5.95v.042c0 3.292 2.423 5.987 5.762 5.987 3.34 0 5.723-2.66 5.723-5.95ZM23.103 30.98c-.451-.588-1.138-1.894-1.138-4.383 0-2.49.681-3.795 1.138-4.384a4.418 4.418 0 0 0 2.289-1.948c.51-.896.686-1.94.5-2.952a4.388 4.388 0 0 0-1.52-2.585 4.45 4.45 0 0 0-5.672 0 4.366 4.366 0 0 0-1.02 5.536 4.418 4.418 0 0 0 2.289 1.95c.452.588 1.138 1.893 1.138 4.383s-.681 3.795-1.138 4.382a4.419 4.419 0 0 0-2.289 1.95 4.366 4.366 0 0 0 1.02 5.535 4.45 4.45 0 0 0 2.836 1.02 4.45 4.45 0 0 0 2.836-1.02 4.388 4.388 0 0 0 1.52-2.584 4.365 4.365 0 0 0-.5-2.952 4.419 4.419 0 0 0-2.29-1.949Z"></path>
          <path d="M17.4 33.532c-.593.45-1.908 1.132-4.418 1.132-2.51 0-3.825-.677-4.416-1.132a4.404 4.404 0 0 0-1.964-2.271 4.457 4.457 0 0 0-2.974-.497 4.435 4.435 0 0 0-2.605 1.509 4.374 4.374 0 0 0-1.027 2.814c0 1.028.364 2.024 1.027 2.814a4.435 4.435 0 0 0 2.605 1.508c1.02.185 2.072.01 2.974-.496a4.404 4.404 0 0 0 1.964-2.271c.591-.45 1.908-1.13 4.416-1.13 2.508 0 3.825.677 4.417 1.13a4.403 4.403 0 0 0 1.964 2.27 4.457 4.457 0 0 0 2.973.496A4.434 4.434 0 0 0 24.94 37.9a4.373 4.373 0 0 0 1.026-2.813 4.373 4.373 0 0 0-1.026-2.813 4.434 4.434 0 0 0-2.604-1.509 4.457 4.457 0 0 0-2.973.497 4.403 4.403 0 0 0-1.964 2.27Z"></path>
          <path d="M5.996 30.98c-.45-.582-1.132-1.884-1.132-4.378 0-2.493.681-3.795 1.138-4.383a4.419 4.419 0 0 0 2.289-1.95c.51-.894.686-1.939.5-2.95a4.387 4.387 0 0 0-1.52-2.585 4.449 4.449 0 0 0-5.672 0 4.387 4.387 0 0 0-1.52 2.585 4.365 4.365 0 0 0 .5 2.95 4.419 4.419 0 0 0 2.29 1.95c.451.588 1.138 1.893 1.138 4.383s-.681 3.796-1.138 4.383a4.419 4.419 0 0 0-2.288 1.949 4.365 4.365 0 0 0-.5 2.95A4.387 4.387 0 0 0 1.6 38.47a4.449 4.449 0 0 0 5.671 0 4.387 4.387 0 0 0 1.52-2.585 4.365 4.365 0 0 0-.5-2.951 4.419 4.419 0 0 0-2.289-1.95l-.007-.005Z"></path>
          <path d="M17.4 16.556c-.593.45-1.908 1.13-4.418 1.13-2.51 0-3.825-.675-4.416-1.13a4.407 4.407 0 0 0-1.965-2.273 4.46 4.46 0 0 0-5.583 1.012 4.377 4.377 0 0 0 0 5.632 4.46 4.46 0 0 0 5.583 1.012 4.407 4.407 0 0 0 1.965-2.273c.591-.447 1.908-1.128 4.416-1.128 2.508 0 3.825.677 4.417 1.128a4.402 4.402 0 0 0 1.964 2.27 4.456 4.456 0 0 0 2.973.497 4.434 4.434 0 0 0 2.604-1.509 4.373 4.373 0 0 0 1.026-2.813 4.373 4.373 0 0 0-1.026-2.813 4.434 4.434 0 0 0-2.604-1.508 4.456 4.456 0 0 0-2.973.496 4.403 4.403 0 0 0-1.964 2.27Z"></path>
          <path d="M34.684 19.747c-.45-.588-1.137-1.893-1.137-4.382s.68-3.796 1.137-4.385c.508-.19.977-.472 1.382-.831.017-.014.032-.031.05-.046a3.89 3.89 0 0 0 .202-.195l.04-.043c.117-.125.226-.256.328-.392.02-.029.043-.057.062-.088.041-.056.08-.115.118-.175.038-.059.064-.101.092-.152l.093-.165c.03-.056.064-.136.095-.198l.066-.143c.046-.114.09-.229.126-.346.013-.035.02-.073.033-.108.026-.09.05-.186.07-.278l.028-.135c.015-.092.03-.184.041-.27 0-.043.012-.085.015-.127a4.365 4.365 0 0 0-1.276-3.513 4.43 4.43 0 0 0-3.132-1.287c-.136 0-.272.008-.408.019l-.127.015a4.79 4.79 0 0 0-.28.043l-.136.026a5.354 5.354 0 0 0-.272.071l-.11.03c-.12.038-.236.082-.35.127-.051.02-.098.045-.147.068-.049.023-.136.06-.196.092l-.17.093c-.05.028-.1.06-.147.09-.048.029-.124.075-.183.117-.027.017-.05.038-.078.055a5.383 5.383 0 0 0-.408.337l-.038.034a3.517 3.517 0 0 0-.24.251 4.313 4.313 0 0 0-.846 1.364c-.592.447-1.908 1.128-4.415 1.128s-3.826-.676-4.418-1.128a4.404 4.404 0 0 0-1.965-2.27 4.457 4.457 0 0 0-2.974-.497 4.435 4.435 0 0 0-2.604 1.508 4.374 4.374 0 0 0-1.027 2.814c0 1.029.363 2.025 1.027 2.814a4.435 4.435 0 0 0 2.604 1.509c1.02.185 2.072.01 2.974-.496a4.404 4.404 0 0 0 1.965-2.272c.592-.449 1.907-1.13 4.418-1.13s3.815.676 4.413 1.128c.135.302.288.596.458.88a7.423 7.423 0 0 0 .203.28c.05.06.101.12.153.178.027.03.158.17.2.21.042.04.08.08.124.12.044.04.059.051.087.08.059.05.116.097.177.144.018.014.033.028.05.038.073.058.15.113.231.168h.01c.275.182.57.332.878.449.454.588 1.137 1.893 1.137 4.382 0 2.49-.681 3.794-1.137 4.382a4.417 4.417 0 0 0-2.287 1.949 4.364 4.364 0 0 0-.5 2.95 4.386 4.386 0 0 0 1.52 2.584 4.447 4.447 0 0 0 2.834 1.019c1.036 0 2.04-.36 2.835-1.02a4.365 4.365 0 0 0 1.02-5.534 4.418 4.418 0 0 0-2.288-1.948v.008Z"></path>
        </g>
      </g>
      <defs>
        <clipPath id="a">
          <path fill="#fff" transform="translate(0 .241)" d="M0 0h160v39H0z"></path>
        </clipPath>
        <clipPath id="b">
          <path fill="#fff" transform="translate(0 2.482)" d="M0 0h159v37H0z"></path>
        </clipPath>
      </defs>
    </symbol>
    <symbol fill="none" xmlns="http://www.w3.org/2000/svg" viewBox="0 0 160 40" id="nix">
      <g clip-path="url(#a)">
        <path d="M57 8.474h4.14v2.797h.073c.387-.872 1.059-1.64 2.016-2.306.956-.666 2.088-1 3.396-1 1.137 0 2.111.2 2.923.6.812.4 1.477.926 1.998 1.58.521.654.902 1.404 1.143 2.253.243.848.365 1.72.365 2.614v10.896h-4.36v-9.66c0-.51-.035-1.042-.109-1.599a4.309 4.309 0 0 0-.471-1.507 3.132 3.132 0 0 0-.999-1.108c-.424-.29-.987-.436-1.689-.436-.703 0-1.308.14-1.816.418-.51.278-.926.636-1.253 1.071a4.745 4.745 0 0 0-.745 1.507 5.99 5.99 0 0 0-.254 1.726v9.588H57V8.474Z" fill="#528BE6"></path>
        <path d="M103.921 21.279v5.143l-8.027-6.646-8.027 6.646v-5.143l8.027-6.646 8.027 6.646Z" fill="#A1CBF2"></path>
        <path d="M95.895 19.775v.001ZM95.894 14.632 99 17.204l4.922-4.075V7.986l-8.028 6.646Z" fill="#528BE6"></path>
        <path d="m87.867 13.13 4.921 4.074 3.106-2.572-8.027-6.646v5.143ZM82.64 8.475H78.28v17.434h4.359V8.475ZM60.02 32.664c-.27-.297-.766-.511-1.206-.511-.733 0-1.01.544-1.01.973 0 1.353 2.77.883 2.77 2.707 0 .833-.562 1.65-1.751 1.65a2.405 2.405 0 0 1-1.784-.76l.383-.387c.334.38.863.585 1.344.585.846 0 1.172-.626 1.172-1.072 0-1.312-2.76-.817-2.76-2.706 0-.792.488-1.551 1.58-1.551.61 0 1.23.239 1.644.676l-.383.396ZM64.87 36.922c1.361 0 2.289-.966 2.289-2.385 0-1.419-.928-2.384-2.29-2.384-1.361 0-2.297.965-2.297 2.384 0 1.42.935 2.385 2.297 2.385Zm0-5.33c1.746 0 2.94 1.196 2.94 2.945 0 1.75-1.194 2.946-2.94 2.946-1.755 0-2.95-1.197-2.95-2.946 0-1.75 1.195-2.945 2.95-2.945ZM69.941 36.952h2.246v.53h-2.86v-5.89h.614v5.36ZM77.111 31.592h.63V35.3c0 1.308-.89 2.183-2.192 2.183-1.31 0-2.184-.875-2.184-2.183v-3.708h.63V35.3c0 .966.63 1.616 1.546 1.616.932 0 1.57-.65 1.57-1.616v-3.708ZM81.591 37.483h-.635v-5.361h-1.702v-.53h4.04v.53H81.59v5.36ZM85.316 31.592h-.673v5.89h.673v-5.89ZM89.778 36.922c1.362 0 2.29-.966 2.29-2.385 0-1.419-.928-2.384-2.29-2.384s-2.298.965-2.298 2.384c0 1.42.936 2.385 2.298 2.385Zm0-5.33c1.746 0 2.94 1.196 2.94 2.945 0 1.75-1.194 2.946-2.94 2.946-1.755 0-2.95-1.197-2.95-2.946 0-1.75 1.195-2.945 2.95-2.945ZM94.663 31.592l3.654 4.695v-4.695h.63v5.89h-.428l-3.655-4.695v4.696h-.63v-5.891h.429ZM103.444 32.664c-.269-.297-.766-.511-1.206-.511-.733 0-1.01.544-1.01.973 0 1.353 2.769.883 2.769 2.707 0 .833-.562 1.65-1.751 1.65a2.405 2.405 0 0 1-1.783-.76l.383-.387c.333.38.863.585 1.343.585.847 0 1.173-.626 1.173-1.072 0-1.312-2.761-.817-2.761-2.706 0-.792.489-1.551 1.58-1.551.611 0 1.23.239 1.645.676l-.382.396ZM83.15 3.172a2.689 2.689 0 1 1-5.378 0 2.689 2.689 0 0 1 5.378 0Z" fill="#528BE6"></path>
      </g>
      <defs>
        <clipPath id="a">
          <path fill="#fff" transform="translate(0 .241)" d="M0 0h160v39H0z"></path>
        </clipPath>
      </defs>
    </symbol>
    <symbol fill="none" xmlns="http://www.w3.org/2000/svg" viewBox="0 0 160 40" id="boosteroid">
      <path d="M21.477 15.205c-2.657 0-4.635 1.893-4.635 4.465 0 2.571 1.978 4.465 4.635 4.465 2.656 0 4.606-1.894 4.606-4.465 0-2.544-1.95-4.465-4.606-4.465Zm-.057 7.206c-1.61 0-2.656-1.13-2.656-2.741 0-1.64 1.045-2.741 2.656-2.741 1.61 0 2.628 1.074 2.628 2.74 0 1.64-1.045 2.742-2.628 2.742ZM7.658 19.472a2.826 2.826 0 0 0 1.78-2.628c0-1.893-1.497-3.165-3.673-3.165H0v11.982h5.878c2.317 0 3.786-1.3 3.786-3.307-.028-1.243-.876-2.43-2.006-2.825v-.057ZM1.865 15.29h3.589c1.243 0 2.035.678 2.035 1.695 0 1.074-.792 1.696-2.035 1.696H1.865V15.29Zm3.674 8.76H1.865v-3.674H5.54c1.328 0 2.176.707 2.176 1.837s-.848 1.809-2.176 1.809v.028Zm28.145-9.693c0-.396.34-.763.763-.763h8.958a.79.79 0 1 1 0 1.583h-8.958a.792.792 0 0 1-.735-.82h-.028Zm0 10.738c0-.423.34-.79.763-.79h8.958a.79.79 0 0 1 0 1.553h-8.958a.791.791 0 0 1-.763-.763Zm14.92-4.606h-6.103a.791.791 0 0 1 0-1.582h6.104a.81.81 0 0 1 .82.763c0 .452-.368.847-.82.847v-.028Zm93.96-6.81h-1.893v11.982h1.893V13.679Zm-69.968 8.59c0 1.724-1.271 3.59-4.804 3.59-2.571 0-4.097-1.046-4.917-1.922l-.113-.113 1.13-1.328.142.14a5.242 5.242 0 0 0 3.815 1.612c2.063 0 2.826-.933 2.826-1.837 0-1.272-1.498-1.64-3.194-2.063-2.006-.509-4.295-1.074-4.295-3.448 0-1.978 1.893-3.39 4.521-3.39 1.866 0 3.392.565 4.522 1.695l.113.113-1.13 1.3-.142-.141c-.847-.848-2.12-1.357-3.504-1.357-1.441 0-2.458.678-2.458 1.696 0 .989 1.356 1.356 2.91 1.752 2.035.48 4.578 1.13 4.578 3.701Zm55.783-8.76c-3.674 0-6.387 2.572-6.387 6.16 0 3.59 2.685 6.19 6.415 6.19 3.702 0 6.415-2.6 6.415-6.19 0-3.588-2.713-6.16-6.443-6.16Zm0 10.739c-2.657 0-4.437-1.865-4.437-4.607 0-2.74 1.78-4.577 4.465-4.577 2.656 0 4.437 1.836 4.437 4.578 0 2.684-1.809 4.577-4.437 4.577l-.028.029Zm25.008-10.569h-4.464v11.982h4.464c3.872 0 6.613-2.459 6.613-5.935 0-3.532-2.713-6.019-6.613-6.019v-.028Zm0 10.343h-2.571v-8.76h2.571c2.826 0 4.663 1.752 4.663 4.408 0 2.6-1.865 4.352-4.663 4.352Zm-39.929-3.165c1.667-.255 3.165-1.385 3.165-3.533 0-2.176-1.667-3.645-4.097-3.645h-5.2v11.982h1.865v-4.663h2.261l3.193 4.634h2.261l-3.448-4.804v.029Zm-4.239-1.442V15.29h3.109c1.413 0 2.345.847 2.345 2.034 0 1.244-.989 2.091-2.345 2.091h-3.109ZM77.457 13.68h9.862v1.61h-4.013v10.343h-1.893V15.29h-3.956v-1.611Zm15.372 0h8.563v1.61h-6.641v3.392h6.499v1.61h-6.499v3.674h6.641v1.61h-8.563V13.68Z" fill="#528BE6"></path>
      <path d="M51.344 13.51c-3.702 0-6.415 2.6-6.415 6.19 0 3.56 2.713 6.16 6.415 6.16 3.701 0 6.414-2.6 6.414-6.16 0-3.59-2.713-6.218-6.414-6.218v.029Zm0 10.739c-2.657 0-4.465-1.865-4.465-4.578 0-2.741 1.808-4.606 4.465-4.606 2.684 0 4.465 1.865 4.465 4.606 0 2.685-1.81 4.578-4.465 4.578Z" fill="#528BE6"></path>
    </symbol>
  </symbol>
</svg>